<svg width="32" height="32" viewBox="0 0 32 32" fill="none" xmlns="http://www.w3.org/2000/svg">
<path d="M13.1758 25.4453C12.3633 25.4453 11.625 25.3438 10.9609 25.1406C10.3047 24.9453 9.74609 24.7148 9.28516 24.4492C8.82422 24.1836 8.48438 23.957 8.26562 23.7695C7.76562 24.0117 7.28125 24.1914 6.8125 24.3086C6.35156 24.4258 5.90625 24.4844 5.47656 24.4844C4.5625 24.4844 3.75781 24.2812 3.0625 23.875C2.36719 23.4688 1.82031 22.9102 1.42188 22.1992C1.03125 21.4805 0.835938 20.6484 0.835938 19.7031C0.835938 18.9922 0.988281 18.2695 1.29297 17.5352C1.60547 16.793 2.09766 16.0859 2.76953 15.4141C2.23828 14.8516 1.85156 14.25 1.60938 13.6094C1.375 12.9688 1.25781 12.3242 1.25781 11.6758C1.25781 10.7461 1.47656 9.86719 1.91406 9.03906C2.35156 8.20312 2.9375 7.51172 3.67188 6.96484C4.40625 6.41016 5.22266 6.07812 6.12109 5.96875C6.15234 5.29688 6.34375 4.67578 6.69531 4.10547C7.05469 3.53516 7.51953 3.04297 8.08984 2.62891C8.66797 2.21484 9.30469 1.89453 10 1.66797C10.7031 1.44141 11.4141 1.32812 12.1328 1.32812C12.8672 1.32812 13.5664 1.44922 14.2305 1.69141C14.8945 1.93359 15.4844 2.31641 16 2.83984C16.5078 2.31641 17.0938 1.93359 17.7578 1.69141C18.4297 1.44922 19.1328 1.32812 19.8672 1.32812C20.5859 1.32812 21.293 1.44141 21.9883 1.66797C22.6914 1.89453 23.332 2.21484 23.9102 2.62891C24.4883 3.04297 24.9531 3.53516 25.3047 4.10547C25.6641 4.67578 25.8594 5.29688 25.8906 5.96875C26.7891 6.07812 27.6016 6.41016 28.3281 6.96484C29.0625 7.51172 29.6445 8.20312 30.0742 9.03906C30.5117 9.86719 30.7305 10.7461 30.7305 11.6758C30.7305 12.3242 30.6133 12.9688 30.3789 13.6094C30.1445 14.25 29.7617 14.8516 29.2305 15.4141C29.9023 16.0859 30.3906 16.793 30.6953 17.5352C31.0078 18.2695 31.1641 18.9922 31.1641 19.7031C31.1641 20.6484 30.9648 21.4805 30.5664 22.1992C30.1758 22.9102 29.6328 23.4688 28.9375 23.875C28.2422 24.2812 27.4375 24.4844 26.5234 24.4844C26.0938 24.4844 25.6445 24.4258 25.1758 24.3086C24.707 24.1914 24.2266 24.0117 23.7344 23.7695C23.5156 23.957 23.1758 24.1836 22.7148 24.4492C22.2539 24.7148 21.6914 24.9453 21.0273 25.1406C20.3711 25.3438 19.6367 25.4453 18.8242 25.4453C18.3945 25.4453 17.9414 25.4102 17.4648 25.3398C16.9883 25.2695 16.5 25.1445 16 24.9648C15.5 25.1445 15.0117 25.2695 14.5352 25.3398C14.0586 25.4102 13.6055 25.4453 13.1758 25.4453ZM13.1758 23.7578C13.6211 23.7578 14.0625 23.7148 14.5 23.6289C14.9375 23.543 15.4375 23.3867 16 23.1602C16.5625 23.3867 17.0625 23.543 17.5 23.6289C17.9375 23.7148 18.3789 23.7578 18.8242 23.7578C19.7305 23.7578 20.4922 23.6289 21.1094 23.3711C21.7344 23.1055 22.2344 22.8086 22.6094 22.4805C22.9922 22.1445 23.2695 21.875 23.4414 21.6719C24.0586 22.1094 24.5859 22.4062 25.0234 22.5625C25.4609 22.7109 25.9609 22.7852 26.5234 22.7852C27.4141 22.7852 28.125 22.5039 28.6562 21.9414C29.1953 21.3789 29.4648 20.6328 29.4648 19.7031C29.4648 19.0781 29.3203 18.4922 29.0312 17.9453C28.75 17.3906 28.2031 16.7422 27.3906 16C27.2109 15.8438 27.125 15.6523 27.1328 15.4258C27.1406 15.1914 27.2188 15 27.3672 14.8516C28.0547 14.1875 28.5039 13.6016 28.7148 13.0938C28.9336 12.5781 29.043 12.0312 29.043 11.4531C29.043 10.7031 28.8594 10.0273 28.4922 9.42578C28.1328 8.82422 27.6211 8.35938 26.957 8.03125C26.3008 7.70312 25.5273 7.57031 24.6367 7.63281C24.4414 7.64844 24.3047 7.60156 24.2266 7.49219C24.1562 7.38281 24.1328 7.25781 24.1562 7.11719C24.2656 6.35937 24.1445 5.67188 23.793 5.05469C23.4492 4.42969 22.9258 3.93359 22.2227 3.56641C21.5195 3.19922 20.6992 3.01562 19.7617 3.01562C18.9492 3.01562 18.2461 3.16797 17.6523 3.47266C17.0664 3.76953 16.5156 4.19141 16 4.73828C15.4844 4.19141 14.9336 3.76953 14.3477 3.47266C13.7617 3.16797 13.0586 3.01562 12.2383 3.01562C11.3008 3.01562 10.4805 3.19922 9.77734 3.56641C9.07422 3.93359 8.54688 4.42969 8.19531 5.05469C7.85156 5.67188 7.73438 6.35937 7.84375 7.11719C7.86719 7.25781 7.84375 7.38281 7.77344 7.49219C7.70312 7.60156 7.56641 7.64844 7.36328 7.63281C6.47266 7.57031 5.69531 7.70312 5.03125 8.03125C4.375 8.35938 3.86328 8.82422 3.49609 9.42578C3.12891 10.0273 2.94531 10.7031 2.94531 11.4531C2.94531 12.0312 3.05469 12.5781 3.27344 13.0938C3.49219 13.6016 3.94531 14.1875 4.63281 14.8516C4.78125 15 4.85938 15.1914 4.86719 15.4258C4.875 15.6523 4.78906 15.8438 4.60938 16C3.79688 16.7422 3.24609 17.3906 2.95703 17.9453C2.67578 18.4922 2.53516 19.0781 2.53516 19.7031C2.53516 20.6328 2.80078 21.3789 3.33203 21.9414C3.87109 22.5039 4.58594 22.7852 5.47656 22.7852C6.03906 22.7852 6.53906 22.7109 6.97656 22.5625C7.41406 22.4062 7.9375 22.1094 8.54688 21.6719C8.72656 21.875 9.00391 22.1445 9.37891 22.4805C9.76172 22.8086 10.2617 23.1055 10.8789 23.3711C11.5039 23.6289 12.2695 23.7578 13.1758 23.7578ZM9.75391 19.75C9.55078 19.75 9.375 19.6797 9.22656 19.5391C9.08594 19.3984 9.01562 19.2266 9.01562 19.0234C9.01562 18.8203 9.08594 18.6484 9.22656 18.5078C9.375 18.3594 9.55078 18.2852 9.75391 18.2852C10.4102 18.2773 10.9453 18.1562 11.3594 17.9219C11.7812 17.6875 12.0938 17.3672 12.2969 16.9609C12.5 16.5469 12.6133 16.0664 12.6367 15.5195C12.6445 15.3242 12.7188 15.1758 12.8594 15.0742C13.0078 14.9648 13.1719 14.918 13.3516 14.9336C13.5391 14.9492 13.6914 15.0391 13.8086 15.2031C14.0586 15.5625 14.3594 15.8438 14.7109 16.0469C15.0703 16.25 15.5 16.3516 16 16.3516C16.5 16.3516 16.9258 16.25 17.2773 16.0469C17.6367 15.8438 17.9414 15.5625 18.1914 15.2031C18.3086 15.0391 18.457 14.9492 18.6367 14.9336C18.8242 14.918 18.9883 14.9648 19.1289 15.0742C19.2773 15.1758 19.3555 15.3242 19.3633 15.5195C19.3789 16.0664 19.4883 16.5469 19.6914 16.9609C19.9023 17.3672 20.2148 17.6875 20.6289 17.9219C21.0508 18.1562 21.5898 18.2773 22.2461 18.2852C22.4492 18.2852 22.6211 18.3594 22.7617 18.5078C22.9102 18.6484 22.9844 18.8203 22.9844 19.0234C22.9844 19.2266 22.9102 19.3984 22.7617 19.5391C22.6211 19.6797 22.4492 19.75 22.2461 19.75C21.1445 19.75 20.2734 19.5234 19.6328 19.0703C18.9922 18.6094 18.5391 18.0117 18.2734 17.2773C17.9531 17.4961 17.6055 17.6602 17.2305 17.7695C16.8555 17.8789 16.4453 17.9336 16 17.9336C15.5547 17.9336 15.1445 17.8789 14.7695 17.7695C14.3945 17.6602 14.0469 17.4961 13.7266 17.2773C13.4531 18.0117 12.9961 18.6094 12.3555 19.0703C11.7148 19.5234 10.8477 19.75 9.75391 19.75ZM16 31.9141C15.4375 31.9141 14.9844 31.832 14.6406 31.668C14.3047 31.5039 14.1367 31.2812 14.1367 31C14.1367 30.7578 14.1523 30.3867 14.1836 29.8867C14.2227 29.3867 14.2578 28.8359 14.2891 28.2344C14.3281 27.6328 14.3477 27.0547 14.3477 26.5C14.3477 25.9844 14.2539 25.3945 14.0664 24.7305C13.8789 24.0664 13.6445 23.3867 13.3633 22.6914C13.0898 21.9961 12.8047 21.3438 12.5078 20.7344C12.2109 20.1172 11.9453 19.5938 11.7109 19.1641C11.4766 18.7344 11.3203 18.4531 11.2422 18.3203L12.7773 17.2539C12.9727 17.6133 13.1836 18.0039 13.4102 18.4258C13.6445 18.8398 13.8945 19.3164 14.1602 19.8555C14.4258 20.3867 14.7188 21.0039 15.0391 21.707V17.6523H16.9609V21.6953C17.2734 20.9922 17.5625 20.375 17.8281 19.8438C18.1016 19.3125 18.3516 18.8398 18.5781 18.4258C18.8125 18.0039 19.0273 17.6133 19.2227 17.2539L20.7695 18.3203C20.6914 18.4531 20.5312 18.7344 20.2891 19.1641C20.0547 19.5938 19.7891 20.1172 19.4922 20.7344C19.1953 21.3438 18.9062 21.9961 18.625 22.6914C18.3438 23.3867 18.1094 24.0664 17.9219 24.7305C17.7422 25.3945 17.6523 25.9844 17.6523 26.5C17.6523 27.0547 17.668 27.6328 17.6992 28.2344C17.7383 28.8359 17.7734 29.3867 17.8047 29.8867C17.8438 30.3867 17.8633 30.7578 17.8633 31C17.8633 31.2812 17.6914 31.5039 17.3477 31.668C17.0117 31.832 16.5625 31.9141 16 31.9141Z" fill="#008000"/>
</svg>
