<svg width="32" height="32" viewBox="0 0 32 32" fill="none" xmlns="http://www.w3.org/2000/svg">
<path d="M16 8.38281C15.7188 8.38281 15.4766 8.28516 15.2734 8.08984C15.0781 7.88672 14.9805 7.64453 14.9805 7.36328V4.84375C14.9805 4.5625 15.0781 4.32422 15.2734 4.12891C15.4766 3.92578 15.7188 3.82422 16 3.82422C16.2734 3.82422 16.5078 3.92578 16.7031 4.12891C16.9062 4.32422 17.0078 4.5625 17.0078 4.84375V7.36328C17.0078 7.64453 16.9062 7.88672 16.7031 8.08984C16.5078 8.28516 16.2734 8.38281 16 8.38281ZM21.7422 10.7852C21.5469 10.5898 21.4492 10.3516 21.4492 10.0703C21.4492 9.78906 21.5469 9.55078 21.7422 9.35547L23.5469 7.55078C23.7422 7.35547 23.9805 7.25781 24.2617 7.25781C24.543 7.25781 24.7812 7.35547 24.9766 7.55078C25.1719 7.74609 25.2695 7.98828 25.2695 8.27734C25.2695 8.55859 25.1719 8.79688 24.9766 8.99219L23.1836 10.7852C22.9883 10.9883 22.7461 11.0898 22.457 11.0898C22.1758 11.082 21.9375 10.9805 21.7422 10.7852ZM24.1211 16.5391C24.1211 16.2578 24.2188 16.0195 24.4141 15.8242C24.6172 15.6211 24.8594 15.5195 25.1406 15.5195H27.6602C27.9336 15.5195 28.168 15.6211 28.3633 15.8242C28.5664 16.0195 28.668 16.2578 28.668 16.5391C28.668 16.8125 28.5664 17.0508 28.3633 17.2539C28.168 17.4492 27.9336 17.5469 27.6602 17.5469H25.1406C24.8594 17.5469 24.6172 17.4492 24.4141 17.2539C24.2188 17.0508 24.1211 16.8125 24.1211 16.5391ZM21.7422 22.293C21.9375 22.1055 22.1758 22.0117 22.457 22.0117C22.7383 22.0117 22.9766 22.1055 23.1719 22.293L24.9766 24.0977C25.1719 24.2852 25.2695 24.5195 25.2695 24.8008C25.2695 25.082 25.1719 25.3242 24.9766 25.5273C24.7812 25.7148 24.543 25.8086 24.2617 25.8086C23.9805 25.8164 23.7422 25.7266 23.5469 25.5391L21.7422 23.7227C21.5469 23.5352 21.4492 23.3008 21.4492 23.0195C21.4492 22.7383 21.5469 22.4961 21.7422 22.293ZM16 24.6953C16.2734 24.6953 16.5078 24.7969 16.7031 25C16.9062 25.1953 17.0078 25.4297 17.0078 25.7031V28.2344C17.0078 28.5078 16.9062 28.7422 16.7031 28.9375C16.5078 29.1406 16.2734 29.2422 16 29.2422C15.7188 29.2422 15.4766 29.1406 15.2734 28.9375C15.0781 28.7422 14.9805 28.5078 14.9805 28.2344V25.7031C14.9805 25.4297 15.0781 25.1953 15.2734 25C15.4766 24.7969 15.7188 24.6953 16 24.6953ZM10.2461 22.293C10.4336 22.4961 10.5273 22.7383 10.5273 23.0195C10.5273 23.3008 10.4297 23.5352 10.2344 23.7227L8.44141 25.5273C8.24609 25.7148 8.00391 25.8047 7.71484 25.7969C7.43359 25.7969 7.19531 25.7031 7 25.5156C6.8125 25.3125 6.71875 25.0703 6.71875 24.7891C6.71875 24.5078 6.81641 24.2734 7.01172 24.0859L8.80469 22.293C9 22.1055 9.23828 22.0117 9.51953 22.0117C9.80859 22.0117 10.0508 22.1055 10.2461 22.293ZM7.86719 16.5391C7.86719 16.8125 7.76562 17.0508 7.5625 17.2539C7.36719 17.4492 7.12891 17.5469 6.84766 17.5469H4.32812C4.05469 17.5469 3.81641 17.4492 3.61328 17.2539C3.41797 17.0508 3.32031 16.8125 3.32031 16.5391C3.32031 16.2578 3.41797 16.0195 3.61328 15.8242C3.81641 15.6211 4.05469 15.5195 4.32812 15.5195H6.84766C7.12891 15.5195 7.36719 15.6211 7.5625 15.8242C7.76562 16.0195 7.86719 16.2578 7.86719 16.5391ZM10.2344 10.7852C10.0391 10.9805 9.80078 11.0781 9.51953 11.0781C9.23828 11.0781 9 10.9805 8.80469 10.7852L7.01172 8.98047C6.82422 8.79297 6.73047 8.55859 6.73047 8.27734C6.73047 7.98828 6.82812 7.74609 7.02344 7.55078C7.21875 7.35547 7.45703 7.26172 7.73828 7.26953C8.02734 7.26953 8.26562 7.36328 8.45312 7.55078L10.2461 9.35547C10.4336 9.54297 10.5273 9.78125 10.5273 10.0703C10.5273 10.3594 10.4297 10.5977 10.2344 10.7852ZM16 22.5039C15.1719 22.5039 14.3984 22.3516 13.6797 22.0469C12.9609 21.7344 12.3242 21.3047 11.7695 20.7578C11.2227 20.2109 10.793 19.5781 10.4805 18.8594C10.1758 18.1328 10.0234 17.3594 10.0234 16.5391C10.0234 15.7109 10.1758 14.9375 10.4805 14.2188C10.793 13.5 11.2227 12.8672 11.7695 12.3203C12.3242 11.7734 12.9609 11.3438 13.6797 11.0312C14.3984 10.7188 15.1719 10.5625 16 10.5625C16.8203 10.5625 17.5898 10.7188 18.3086 11.0312C19.0352 11.3438 19.6719 11.7734 20.2188 12.3203C20.7656 12.8672 21.1914 13.5 21.4961 14.2188C21.8086 14.9375 21.9648 15.7109 21.9648 16.5391C21.9648 17.3594 21.8086 18.1328 21.4961 18.8594C21.1914 19.5781 20.7656 20.2109 20.2188 20.7578C19.6719 21.3047 19.0352 21.7344 18.3086 22.0469C17.5898 22.3516 16.8203 22.5039 16 22.5039ZM16 20.7227C16.7734 20.7227 17.4766 20.5352 18.1094 20.1602C18.7422 19.7852 19.2461 19.2812 19.6211 18.6484C19.9961 18.0156 20.1836 17.3125 20.1836 16.5391C20.1836 15.7656 19.9961 15.0625 19.6211 14.4297C19.2461 13.7969 18.7422 13.293 18.1094 12.918C17.4766 12.5352 16.7734 12.3438 16 12.3438C15.2266 12.3438 14.5195 12.5352 13.8789 12.918C13.2461 13.293 12.7422 13.7969 12.3672 14.4297C11.9922 15.0625 11.8047 15.7656 11.8047 16.5391C11.8047 17.3125 11.9922 18.0156 12.3672 18.6484C12.7422 19.2812 13.2461 19.7852 13.8789 20.1602C14.5195 20.5352 15.2266 20.7227 16 20.7227Z" fill="black"/>
<path d="M16 8.38281C15.7188 8.38281 15.4766 8.28516 15.2734 8.08984C15.0781 7.88672 14.9805 7.64453 14.9805 7.36328V4.84375C14.9805 4.5625 15.0781 4.32422 15.2734 4.12891C15.4766 3.92578 15.7188 3.82422 16 3.82422C16.2734 3.82422 16.5078 3.92578 16.7031 4.12891C16.9062 4.32422 17.0078 4.5625 17.0078 4.84375V7.36328C17.0078 7.64453 16.9062 7.88672 16.7031 8.08984C16.5078 8.28516 16.2734 8.38281 16 8.38281ZM21.7422 10.7852C21.5469 10.5898 21.4492 10.3516 21.4492 10.0703C21.4492 9.78906 21.5469 9.55078 21.7422 9.35547L23.5469 7.55078C23.7422 7.35547 23.9805 7.25781 24.2617 7.25781C24.543 7.25781 24.7812 7.35547 24.9766 7.55078C25.1719 7.74609 25.2695 7.98828 25.2695 8.27734C25.2695 8.55859 25.1719 8.79688 24.9766 8.99219L23.1836 10.7852C22.9883 10.9883 22.7461 11.0898 22.457 11.0898C22.1758 11.082 21.9375 10.9805 21.7422 10.7852ZM24.1211 16.5391C24.1211 16.2578 24.2188 16.0195 24.4141 15.8242C24.6172 15.6211 24.8594 15.5195 25.1406 15.5195H27.6602C27.9336 15.5195 28.168 15.6211 28.3633 15.8242C28.5664 16.0195 28.668 16.2578 28.668 16.5391C28.668 16.8125 28.5664 17.0508 28.3633 17.2539C28.168 17.4492 27.9336 17.5469 27.6602 17.5469H25.1406C24.8594 17.5469 24.6172 17.4492 24.4141 17.2539C24.2188 17.0508 24.1211 16.8125 24.1211 16.5391ZM21.7422 22.293C21.9375 22.1055 22.1758 22.0117 22.457 22.0117C22.7383 22.0117 22.9766 22.1055 23.1719 22.293L24.9766 24.0977C25.1719 24.2852 25.2695 24.5195 25.2695 24.8008C25.2695 25.082 25.1719 25.3242 24.9766 25.5273C24.7812 25.7148 24.543 25.8086 24.2617 25.8086C23.9805 25.8164 23.7422 25.7266 23.5469 25.5391L21.7422 23.7227C21.5469 23.5352 21.4492 23.3008 21.4492 23.0195C21.4492 22.7383 21.5469 22.4961 21.7422 22.293ZM16 24.6953C16.2734 24.6953 16.5078 24.7969 16.7031 25C16.9062 25.1953 17.0078 25.4297 17.0078 25.7031V28.2344C17.0078 28.5078 16.9062 28.7422 16.7031 28.9375C16.5078 29.1406 16.2734 29.2422 16 29.2422C15.7188 29.2422 15.4766 29.1406 15.2734 28.9375C15.0781 28.7422 14.9805 28.5078 14.9805 28.2344V25.7031C14.9805 25.4297 15.0781 25.1953 15.2734 25C15.4766 24.7969 15.7188 24.6953 16 24.6953ZM10.2461 22.293C10.4336 22.4961 10.5273 22.7383 10.5273 23.0195C10.5273 23.3008 10.4297 23.5352 10.2344 23.7227L8.44141 25.5273C8.24609 25.7148 8.00391 25.8047 7.71484 25.7969C7.43359 25.7969 7.19531 25.7031 7 25.5156C6.8125 25.3125 6.71875 25.0703 6.71875 24.7891C6.71875 24.5078 6.81641 24.2734 7.01172 24.0859L8.80469 22.293C9 22.1055 9.23828 22.0117 9.51953 22.0117C9.80859 22.0117 10.0508 22.1055 10.2461 22.293ZM7.86719 16.5391C7.86719 16.8125 7.76562 17.0508 7.5625 17.2539C7.36719 17.4492 7.12891 17.5469 6.84766 17.5469H4.32812C4.05469 17.5469 3.81641 17.4492 3.61328 17.2539C3.41797 17.0508 3.32031 16.8125 3.32031 16.5391C3.32031 16.2578 3.41797 16.0195 3.61328 15.8242C3.81641 15.6211 4.05469 15.5195 4.32812 15.5195H6.84766C7.12891 15.5195 7.36719 15.6211 7.5625 15.8242C7.76562 16.0195 7.86719 16.2578 7.86719 16.5391ZM10.2344 10.7852C10.0391 10.9805 9.80078 11.0781 9.51953 11.0781C9.23828 11.0781 9 10.9805 8.80469 10.7852L7.01172 8.98047C6.82422 8.79297 6.73047 8.55859 6.73047 8.27734C6.73047 7.98828 6.82812 7.74609 7.02344 7.55078C7.21875 7.35547 7.45703 7.26172 7.73828 7.26953C8.02734 7.26953 8.26562 7.36328 8.45312 7.55078L10.2461 9.35547C10.4336 9.54297 10.5273 9.78125 10.5273 10.0703C10.5273 10.3594 10.4297 10.5977 10.2344 10.7852ZM16 22.5039C15.1719 22.5039 14.3984 22.3516 13.6797 22.0469C12.9609 21.7344 12.3242 21.3047 11.7695 20.7578C11.2227 20.2109 10.793 19.5781 10.4805 18.8594C10.1758 18.1328 10.0234 17.3594 10.0234 16.5391C10.0234 15.7109 10.1758 14.9375 10.4805 14.2188C10.793 13.5 11.2227 12.8672 11.7695 12.3203C12.3242 11.7734 12.9609 11.3438 13.6797 11.0312C14.3984 10.7188 15.1719 10.5625 16 10.5625C16.8203 10.5625 17.5898 10.7188 18.3086 11.0312C19.0352 11.3438 19.6719 11.7734 20.2188 12.3203C20.7656 12.8672 21.1914 13.5 21.4961 14.2188C21.8086 14.9375 21.9648 15.7109 21.9648 16.5391C21.9648 17.3594 21.8086 18.1328 21.4961 18.8594C21.1914 19.5781 20.7656 20.2109 20.2188 20.7578C19.6719 21.3047 19.0352 21.7344 18.3086 22.0469C17.5898 22.3516 16.8203 22.5039 16 22.5039ZM16 20.7227C16.7734 20.7227 17.4766 20.5352 18.1094 20.1602C18.7422 19.7852 19.2461 19.2812 19.6211 18.6484C19.9961 18.0156 20.1836 17.3125 20.1836 16.5391C20.1836 15.7656 19.9961 15.0625 19.6211 14.4297C19.2461 13.7969 18.7422 13.293 18.1094 12.918C17.4766 12.5352 16.7734 12.3438 16 12.3438C15.2266 12.3438 14.5195 12.5352 13.8789 12.918C13.2461 13.293 12.7422 13.7969 12.3672 14.4297C11.9922 15.0625 11.8047 15.7656 11.8047 16.5391C11.8047 17.3125 11.9922 18.0156 12.3672 18.6484C12.7422 19.2812 13.2461 19.7852 13.8789 20.1602C14.5195 20.5352 15.2266 20.7227 16 20.7227Z" fill="black" fill-opacity="0.2"/>
<path d="M16 8.38281C15.7188 8.38281 15.4766 8.28516 15.2734 8.08984C15.0781 7.88672 14.9805 7.64453 14.9805 7.36328V4.84375C14.9805 4.5625 15.0781 4.32422 15.2734 4.12891C15.4766 3.92578 15.7188 3.82422 16 3.82422C16.2734 3.82422 16.5078 3.92578 16.7031 4.12891C16.9062 4.32422 17.0078 4.5625 17.0078 4.84375V7.36328C17.0078 7.64453 16.9062 7.88672 16.7031 8.08984C16.5078 8.28516 16.2734 8.38281 16 8.38281ZM21.7422 10.7852C21.5469 10.5898 21.4492 10.3516 21.4492 10.0703C21.4492 9.78906 21.5469 9.55078 21.7422 9.35547L23.5469 7.55078C23.7422 7.35547 23.9805 7.25781 24.2617 7.25781C24.543 7.25781 24.7812 7.35547 24.9766 7.55078C25.1719 7.74609 25.2695 7.98828 25.2695 8.27734C25.2695 8.55859 25.1719 8.79688 24.9766 8.99219L23.1836 10.7852C22.9883 10.9883 22.7461 11.0898 22.457 11.0898C22.1758 11.082 21.9375 10.9805 21.7422 10.7852ZM24.1211 16.5391C24.1211 16.2578 24.2188 16.0195 24.4141 15.8242C24.6172 15.6211 24.8594 15.5195 25.1406 15.5195H27.6602C27.9336 15.5195 28.168 15.6211 28.3633 15.8242C28.5664 16.0195 28.668 16.2578 28.668 16.5391C28.668 16.8125 28.5664 17.0508 28.3633 17.2539C28.168 17.4492 27.9336 17.5469 27.6602 17.5469H25.1406C24.8594 17.5469 24.6172 17.4492 24.4141 17.2539C24.2188 17.0508 24.1211 16.8125 24.1211 16.5391ZM21.7422 22.293C21.9375 22.1055 22.1758 22.0117 22.457 22.0117C22.7383 22.0117 22.9766 22.1055 23.1719 22.293L24.9766 24.0977C25.1719 24.2852 25.2695 24.5195 25.2695 24.8008C25.2695 25.082 25.1719 25.3242 24.9766 25.5273C24.7812 25.7148 24.543 25.8086 24.2617 25.8086C23.9805 25.8164 23.7422 25.7266 23.5469 25.5391L21.7422 23.7227C21.5469 23.5352 21.4492 23.3008 21.4492 23.0195C21.4492 22.7383 21.5469 22.4961 21.7422 22.293ZM16 24.6953C16.2734 24.6953 16.5078 24.7969 16.7031 25C16.9062 25.1953 17.0078 25.4297 17.0078 25.7031V28.2344C17.0078 28.5078 16.9062 28.7422 16.7031 28.9375C16.5078 29.1406 16.2734 29.2422 16 29.2422C15.7188 29.2422 15.4766 29.1406 15.2734 28.9375C15.0781 28.7422 14.9805 28.5078 14.9805 28.2344V25.7031C14.9805 25.4297 15.0781 25.1953 15.2734 25C15.4766 24.7969 15.7188 24.6953 16 24.6953ZM10.2461 22.293C10.4336 22.4961 10.5273 22.7383 10.5273 23.0195C10.5273 23.3008 10.4297 23.5352 10.2344 23.7227L8.44141 25.5273C8.24609 25.7148 8.00391 25.8047 7.71484 25.7969C7.43359 25.7969 7.19531 25.7031 7 25.5156C6.8125 25.3125 6.71875 25.0703 6.71875 24.7891C6.71875 24.5078 6.81641 24.2734 7.01172 24.0859L8.80469 22.293C9 22.1055 9.23828 22.0117 9.51953 22.0117C9.80859 22.0117 10.0508 22.1055 10.2461 22.293ZM7.86719 16.5391C7.86719 16.8125 7.76562 17.0508 7.5625 17.2539C7.36719 17.4492 7.12891 17.5469 6.84766 17.5469H4.32812C4.05469 17.5469 3.81641 17.4492 3.61328 17.2539C3.41797 17.0508 3.32031 16.8125 3.32031 16.5391C3.32031 16.2578 3.41797 16.0195 3.61328 15.8242C3.81641 15.6211 4.05469 15.5195 4.32812 15.5195H6.84766C7.12891 15.5195 7.36719 15.6211 7.5625 15.8242C7.76562 16.0195 7.86719 16.2578 7.86719 16.5391ZM10.2344 10.7852C10.0391 10.9805 9.80078 11.0781 9.51953 11.0781C9.23828 11.0781 9 10.9805 8.80469 10.7852L7.01172 8.98047C6.82422 8.79297 6.73047 8.55859 6.73047 8.27734C6.73047 7.98828 6.82812 7.74609 7.02344 7.55078C7.21875 7.35547 7.45703 7.26172 7.73828 7.26953C8.02734 7.26953 8.26562 7.36328 8.45312 7.55078L10.2461 9.35547C10.4336 9.54297 10.5273 9.78125 10.5273 10.0703C10.5273 10.3594 10.4297 10.5977 10.2344 10.7852ZM16 22.5039C15.1719 22.5039 14.3984 22.3516 13.6797 22.0469C12.9609 21.7344 12.3242 21.3047 11.7695 20.7578C11.2227 20.2109 10.793 19.5781 10.4805 18.8594C10.1758 18.1328 10.0234 17.3594 10.0234 16.5391C10.0234 15.7109 10.1758 14.9375 10.4805 14.2188C10.793 13.5 11.2227 12.8672 11.7695 12.3203C12.3242 11.7734 12.9609 11.3438 13.6797 11.0312C14.3984 10.7188 15.1719 10.5625 16 10.5625C16.8203 10.5625 17.5898 10.7188 18.3086 11.0312C19.0352 11.3438 19.6719 11.7734 20.2188 12.3203C20.7656 12.8672 21.1914 13.5 21.4961 14.2188C21.8086 14.9375 21.9648 15.7109 21.9648 16.5391C21.9648 17.3594 21.8086 18.1328 21.4961 18.8594C21.1914 19.5781 20.7656 20.2109 20.2188 20.7578C19.6719 21.3047 19.0352 21.7344 18.3086 22.0469C17.5898 22.3516 16.8203 22.5039 16 22.5039ZM16 20.7227C16.7734 20.7227 17.4766 20.5352 18.1094 20.1602C18.7422 19.7852 19.2461 19.2812 19.6211 18.6484C19.9961 18.0156 20.1836 17.3125 20.1836 16.5391C20.1836 15.7656 19.9961 15.0625 19.6211 14.4297C19.2461 13.7969 18.7422 13.293 18.1094 12.918C17.4766 12.5352 16.7734 12.3438 16 12.3438C15.2266 12.3438 14.5195 12.5352 13.8789 12.918C13.2461 13.293 12.7422 13.7969 12.3672 14.4297C11.9922 15.0625 11.8047 15.7656 11.8047 16.5391C11.8047 17.3125 11.9922 18.0156 12.3672 18.6484C12.7422 19.2812 13.2461 19.7852 13.8789 20.1602C14.5195 20.5352 15.2266 20.7227 16 20.7227Z" fill="black" fill-opacity="0.2"/>
<path d="M16 8.38281C15.7188 8.38281 15.4766 8.28516 15.2734 8.08984C15.0781 7.88672 14.9805 7.64453 14.9805 7.36328V4.84375C14.9805 4.5625 15.0781 4.32422 15.2734 4.12891C15.4766 3.92578 15.7188 3.82422 16 3.82422C16.2734 3.82422 16.5078 3.92578 16.7031 4.12891C16.9062 4.32422 17.0078 4.5625 17.0078 4.84375V7.36328C17.0078 7.64453 16.9062 7.88672 16.7031 8.08984C16.5078 8.28516 16.2734 8.38281 16 8.38281ZM21.7422 10.7852C21.5469 10.5898 21.4492 10.3516 21.4492 10.0703C21.4492 9.78906 21.5469 9.55078 21.7422 9.35547L23.5469 7.55078C23.7422 7.35547 23.9805 7.25781 24.2617 7.25781C24.543 7.25781 24.7812 7.35547 24.9766 7.55078C25.1719 7.74609 25.2695 7.98828 25.2695 8.27734C25.2695 8.55859 25.1719 8.79688 24.9766 8.99219L23.1836 10.7852C22.9883 10.9883 22.7461 11.0898 22.457 11.0898C22.1758 11.082 21.9375 10.9805 21.7422 10.7852ZM24.1211 16.5391C24.1211 16.2578 24.2188 16.0195 24.4141 15.8242C24.6172 15.6211 24.8594 15.5195 25.1406 15.5195H27.6602C27.9336 15.5195 28.168 15.6211 28.3633 15.8242C28.5664 16.0195 28.668 16.2578 28.668 16.5391C28.668 16.8125 28.5664 17.0508 28.3633 17.2539C28.168 17.4492 27.9336 17.5469 27.6602 17.5469H25.1406C24.8594 17.5469 24.6172 17.4492 24.4141 17.2539C24.2188 17.0508 24.1211 16.8125 24.1211 16.5391ZM21.7422 22.293C21.9375 22.1055 22.1758 22.0117 22.457 22.0117C22.7383 22.0117 22.9766 22.1055 23.1719 22.293L24.9766 24.0977C25.1719 24.2852 25.2695 24.5195 25.2695 24.8008C25.2695 25.082 25.1719 25.3242 24.9766 25.5273C24.7812 25.7148 24.543 25.8086 24.2617 25.8086C23.9805 25.8164 23.7422 25.7266 23.5469 25.5391L21.7422 23.7227C21.5469 23.5352 21.4492 23.3008 21.4492 23.0195C21.4492 22.7383 21.5469 22.4961 21.7422 22.293ZM16 24.6953C16.2734 24.6953 16.5078 24.7969 16.7031 25C16.9062 25.1953 17.0078 25.4297 17.0078 25.7031V28.2344C17.0078 28.5078 16.9062 28.7422 16.7031 28.9375C16.5078 29.1406 16.2734 29.2422 16 29.2422C15.7188 29.2422 15.4766 29.1406 15.2734 28.9375C15.0781 28.7422 14.9805 28.5078 14.9805 28.2344V25.7031C14.9805 25.4297 15.0781 25.1953 15.2734 25C15.4766 24.7969 15.7188 24.6953 16 24.6953ZM10.2461 22.293C10.4336 22.4961 10.5273 22.7383 10.5273 23.0195C10.5273 23.3008 10.4297 23.5352 10.2344 23.7227L8.44141 25.5273C8.24609 25.7148 8.00391 25.8047 7.71484 25.7969C7.43359 25.7969 7.19531 25.7031 7 25.5156C6.8125 25.3125 6.71875 25.0703 6.71875 24.7891C6.71875 24.5078 6.81641 24.2734 7.01172 24.0859L8.80469 22.293C9 22.1055 9.23828 22.0117 9.51953 22.0117C9.80859 22.0117 10.0508 22.1055 10.2461 22.293ZM7.86719 16.5391C7.86719 16.8125 7.76562 17.0508 7.5625 17.2539C7.36719 17.4492 7.12891 17.5469 6.84766 17.5469H4.32812C4.05469 17.5469 3.81641 17.4492 3.61328 17.2539C3.41797 17.0508 3.32031 16.8125 3.32031 16.5391C3.32031 16.2578 3.41797 16.0195 3.61328 15.8242C3.81641 15.6211 4.05469 15.5195 4.32812 15.5195H6.84766C7.12891 15.5195 7.36719 15.6211 7.5625 15.8242C7.76562 16.0195 7.86719 16.2578 7.86719 16.5391ZM10.2344 10.7852C10.0391 10.9805 9.80078 11.0781 9.51953 11.0781C9.23828 11.0781 9 10.9805 8.80469 10.7852L7.01172 8.98047C6.82422 8.79297 6.73047 8.55859 6.73047 8.27734C6.73047 7.98828 6.82812 7.74609 7.02344 7.55078C7.21875 7.35547 7.45703 7.26172 7.73828 7.26953C8.02734 7.26953 8.26562 7.36328 8.45312 7.55078L10.2461 9.35547C10.4336 9.54297 10.5273 9.78125 10.5273 10.0703C10.5273 10.3594 10.4297 10.5977 10.2344 10.7852ZM16 22.5039C15.1719 22.5039 14.3984 22.3516 13.6797 22.0469C12.9609 21.7344 12.3242 21.3047 11.7695 20.7578C11.2227 20.2109 10.793 19.5781 10.4805 18.8594C10.1758 18.1328 10.0234 17.3594 10.0234 16.5391C10.0234 15.7109 10.1758 14.9375 10.4805 14.2188C10.793 13.5 11.2227 12.8672 11.7695 12.3203C12.3242 11.7734 12.9609 11.3438 13.6797 11.0312C14.3984 10.7188 15.1719 10.5625 16 10.5625C16.8203 10.5625 17.5898 10.7188 18.3086 11.0312C19.0352 11.3438 19.6719 11.7734 20.2188 12.3203C20.7656 12.8672 21.1914 13.5 21.4961 14.2188C21.8086 14.9375 21.9648 15.7109 21.9648 16.5391C21.9648 17.3594 21.8086 18.1328 21.4961 18.8594C21.1914 19.5781 20.7656 20.2109 20.2188 20.7578C19.6719 21.3047 19.0352 21.7344 18.3086 22.0469C17.5898 22.3516 16.8203 22.5039 16 22.5039ZM16 20.7227C16.7734 20.7227 17.4766 20.5352 18.1094 20.1602C18.7422 19.7852 19.2461 19.2812 19.6211 18.6484C19.9961 18.0156 20.1836 17.3125 20.1836 16.5391C20.1836 15.7656 19.9961 15.0625 19.6211 14.4297C19.2461 13.7969 18.7422 13.293 18.1094 12.918C17.4766 12.5352 16.7734 12.3438 16 12.3438C15.2266 12.3438 14.5195 12.5352 13.8789 12.918C13.2461 13.293 12.7422 13.7969 12.3672 14.4297C11.9922 15.0625 11.8047 15.7656 11.8047 16.5391C11.8047 17.3125 11.9922 18.0156 12.3672 18.6484C12.7422 19.2812 13.2461 19.7852 13.8789 20.1602C14.5195 20.5352 15.2266 20.7227 16 20.7227Z" fill="black" fill-opacity="0.2"/>
<path d="M16 8.38281C15.7188 8.38281 15.4766 8.28516 15.2734 8.08984C15.0781 7.88672 14.9805 7.64453 14.9805 7.36328V4.84375C14.9805 4.5625 15.0781 4.32422 15.2734 4.12891C15.4766 3.92578 15.7188 3.82422 16 3.82422C16.2734 3.82422 16.5078 3.92578 16.7031 4.12891C16.9062 4.32422 17.0078 4.5625 17.0078 4.84375V7.36328C17.0078 7.64453 16.9062 7.88672 16.7031 8.08984C16.5078 8.28516 16.2734 8.38281 16 8.38281ZM21.7422 10.7852C21.5469 10.5898 21.4492 10.3516 21.4492 10.0703C21.4492 9.78906 21.5469 9.55078 21.7422 9.35547L23.5469 7.55078C23.7422 7.35547 23.9805 7.25781 24.2617 7.25781C24.543 7.25781 24.7812 7.35547 24.9766 7.55078C25.1719 7.74609 25.2695 7.98828 25.2695 8.27734C25.2695 8.55859 25.1719 8.79688 24.9766 8.99219L23.1836 10.7852C22.9883 10.9883 22.7461 11.0898 22.457 11.0898C22.1758 11.082 21.9375 10.9805 21.7422 10.7852ZM24.1211 16.5391C24.1211 16.2578 24.2188 16.0195 24.4141 15.8242C24.6172 15.6211 24.8594 15.5195 25.1406 15.5195H27.6602C27.9336 15.5195 28.168 15.6211 28.3633 15.8242C28.5664 16.0195 28.668 16.2578 28.668 16.5391C28.668 16.8125 28.5664 17.0508 28.3633 17.2539C28.168 17.4492 27.9336 17.5469 27.6602 17.5469H25.1406C24.8594 17.5469 24.6172 17.4492 24.4141 17.2539C24.2188 17.0508 24.1211 16.8125 24.1211 16.5391ZM21.7422 22.293C21.9375 22.1055 22.1758 22.0117 22.457 22.0117C22.7383 22.0117 22.9766 22.1055 23.1719 22.293L24.9766 24.0977C25.1719 24.2852 25.2695 24.5195 25.2695 24.8008C25.2695 25.082 25.1719 25.3242 24.9766 25.5273C24.7812 25.7148 24.543 25.8086 24.2617 25.8086C23.9805 25.8164 23.7422 25.7266 23.5469 25.5391L21.7422 23.7227C21.5469 23.5352 21.4492 23.3008 21.4492 23.0195C21.4492 22.7383 21.5469 22.4961 21.7422 22.293ZM16 24.6953C16.2734 24.6953 16.5078 24.7969 16.7031 25C16.9062 25.1953 17.0078 25.4297 17.0078 25.7031V28.2344C17.0078 28.5078 16.9062 28.7422 16.7031 28.9375C16.5078 29.1406 16.2734 29.2422 16 29.2422C15.7188 29.2422 15.4766 29.1406 15.2734 28.9375C15.0781 28.7422 14.9805 28.5078 14.9805 28.2344V25.7031C14.9805 25.4297 15.0781 25.1953 15.2734 25C15.4766 24.7969 15.7188 24.6953 16 24.6953ZM10.2461 22.293C10.4336 22.4961 10.5273 22.7383 10.5273 23.0195C10.5273 23.3008 10.4297 23.5352 10.2344 23.7227L8.44141 25.5273C8.24609 25.7148 8.00391 25.8047 7.71484 25.7969C7.43359 25.7969 7.19531 25.7031 7 25.5156C6.8125 25.3125 6.71875 25.0703 6.71875 24.7891C6.71875 24.5078 6.81641 24.2734 7.01172 24.0859L8.80469 22.293C9 22.1055 9.23828 22.0117 9.51953 22.0117C9.80859 22.0117 10.0508 22.1055 10.2461 22.293ZM7.86719 16.5391C7.86719 16.8125 7.76562 17.0508 7.5625 17.2539C7.36719 17.4492 7.12891 17.5469 6.84766 17.5469H4.32812C4.05469 17.5469 3.81641 17.4492 3.61328 17.2539C3.41797 17.0508 3.32031 16.8125 3.32031 16.5391C3.32031 16.2578 3.41797 16.0195 3.61328 15.8242C3.81641 15.6211 4.05469 15.5195 4.32812 15.5195H6.84766C7.12891 15.5195 7.36719 15.6211 7.5625 15.8242C7.76562 16.0195 7.86719 16.2578 7.86719 16.5391ZM10.2344 10.7852C10.0391 10.9805 9.80078 11.0781 9.51953 11.0781C9.23828 11.0781 9 10.9805 8.80469 10.7852L7.01172 8.98047C6.82422 8.79297 6.73047 8.55859 6.73047 8.27734C6.73047 7.98828 6.82812 7.74609 7.02344 7.55078C7.21875 7.35547 7.45703 7.26172 7.73828 7.26953C8.02734 7.26953 8.26562 7.36328 8.45312 7.55078L10.2461 9.35547C10.4336 9.54297 10.5273 9.78125 10.5273 10.0703C10.5273 10.3594 10.4297 10.5977 10.2344 10.7852ZM16 22.5039C15.1719 22.5039 14.3984 22.3516 13.6797 22.0469C12.9609 21.7344 12.3242 21.3047 11.7695 20.7578C11.2227 20.2109 10.793 19.5781 10.4805 18.8594C10.1758 18.1328 10.0234 17.3594 10.0234 16.5391C10.0234 15.7109 10.1758 14.9375 10.4805 14.2188C10.793 13.5 11.2227 12.8672 11.7695 12.3203C12.3242 11.7734 12.9609 11.3438 13.6797 11.0312C14.3984 10.7188 15.1719 10.5625 16 10.5625C16.8203 10.5625 17.5898 10.7188 18.3086 11.0312C19.0352 11.3438 19.6719 11.7734 20.2188 12.3203C20.7656 12.8672 21.1914 13.5 21.4961 14.2188C21.8086 14.9375 21.9648 15.7109 21.9648 16.5391C21.9648 17.3594 21.8086 18.1328 21.4961 18.8594C21.1914 19.5781 20.7656 20.2109 20.2188 20.7578C19.6719 21.3047 19.0352 21.7344 18.3086 22.0469C17.5898 22.3516 16.8203 22.5039 16 22.5039ZM16 20.7227C16.7734 20.7227 17.4766 20.5352 18.1094 20.1602C18.7422 19.7852 19.2461 19.2812 19.6211 18.6484C19.9961 18.0156 20.1836 17.3125 20.1836 16.5391C20.1836 15.7656 19.9961 15.0625 19.6211 14.4297C19.2461 13.7969 18.7422 13.293 18.1094 12.918C17.4766 12.5352 16.7734 12.3438 16 12.3438C15.2266 12.3438 14.5195 12.5352 13.8789 12.918C13.2461 13.293 12.7422 13.7969 12.3672 14.4297C11.9922 15.0625 11.8047 15.7656 11.8047 16.5391C11.8047 17.3125 11.9922 18.0156 12.3672 18.6484C12.7422 19.2812 13.2461 19.7852 13.8789 20.1602C14.5195 20.5352 15.2266 20.7227 16 20.7227Z" fill="black" fill-opacity="0.2"/>
</svg>
