<svg width="24" height="24" viewBox="0 0 24 24" fill="none" xmlns="http://www.w3.org/2000/svg">
<path d="M12 21.832C10.6458 21.832 9.46094 21.5553 8.44531 21.002C7.42969 20.4551 6.63867 19.6868 6.07227 18.6973C5.51237 17.7012 5.23242 16.5423 5.23242 15.2207C5.23242 14.5697 5.30404 13.9284 5.44727 13.2969C5.59049 12.6654 5.76628 12.0697 5.97461 11.5098C6.18294 10.9499 6.38151 10.4551 6.57031 10.0254C6.92188 9.23763 7.33854 8.43359 7.82031 7.61328C8.30859 6.78646 8.82292 5.96289 9.36328 5.14258C9.90365 4.32227 10.4245 3.52148 10.9258 2.74023C11.0755 2.51888 11.2415 2.34961 11.4238 2.23242C11.6126 2.11523 11.8047 2.05664 12 2.05664C12.2018 2.05664 12.3939 2.11523 12.5762 2.23242C12.7585 2.34961 12.9245 2.51888 13.0742 2.74023C13.582 3.52148 14.1029 4.32227 14.6367 5.14258C15.1771 5.96289 15.6914 6.78646 16.1797 7.61328C16.668 8.43359 17.0846 9.23763 17.4297 10.0254C17.6185 10.4551 17.8171 10.9499 18.0254 11.5098C18.2337 12.0697 18.4095 12.6654 18.5527 13.2969C18.696 13.9284 18.7676 14.5697 18.7676 15.2207C18.7676 16.5423 18.4844 17.7012 17.918 18.6973C17.3581 19.6868 16.5703 20.4551 15.5547 21.002C14.5391 21.5553 13.3542 21.832 12 21.832Z" fill="#0077FF"/>
</svg>
