<svg width="24" height="24" viewBox="0 0 24 24" fill="none" xmlns="http://www.w3.org/2000/svg">
<path d="M12 21.832C10.6458 21.832 9.46094 21.5553 8.44531 21.002C7.42969 20.4551 6.63867 19.6868 6.07227 18.6973C5.51237 17.7012 5.23242 16.5423 5.23242 15.2207C5.23242 14.5697 5.30404 13.9284 5.44727 13.2969C5.59049 12.6654 5.76628 12.0697 5.97461 11.5098C6.18294 10.9499 6.38151 10.4551 6.57031 10.0254C7.09115 8.84701 7.72917 7.63607 8.48438 6.39258C9.23958 5.14909 9.97201 3.97721 10.6816 2.87695C10.8574 2.61654 11.0495 2.41471 11.2578 2.27148C11.4661 2.12826 11.7135 2.05664 12 2.05664C12.2865 2.05664 12.5339 2.12826 12.7422 2.27148C12.957 2.41471 13.1491 2.61654 13.3184 2.87695C14.0345 3.97721 14.7669 5.14909 15.5156 6.39258C16.2708 7.63607 16.9089 8.84701 17.4297 10.0254C17.6185 10.4551 17.8171 10.9499 18.0254 11.5098C18.2337 12.0697 18.4095 12.6654 18.5527 13.2969C18.696 13.9284 18.7676 14.5697 18.7676 15.2207C18.7676 16.5423 18.4844 17.7012 17.918 18.6973C17.3581 19.6868 16.5703 20.4551 15.5547 21.002C14.5391 21.5553 13.3542 21.832 12 21.832ZM12 20.2305C13.0352 20.2305 13.9401 20.0221 14.7148 19.6055C15.4896 19.1888 16.0918 18.6061 16.5215 17.8574C16.9577 17.1022 17.1758 16.2233 17.1758 15.2207C17.1758 14.4199 17.0456 13.6419 16.7852 12.8867C16.5312 12.125 16.2676 11.4251 15.9941 10.7871C15.4603 9.50456 14.8483 8.31966 14.1582 7.23242C13.4681 6.14518 12.7845 5.08724 12.1074 4.05859C12.0814 4.00651 12.0488 3.98047 12.0098 3.98047C11.9707 3.98047 11.9349 4.00651 11.9023 4.05859C11.2188 5.08724 10.5319 6.14844 9.8418 7.24219C9.1582 8.32943 8.54297 9.51432 7.99609 10.7969C7.72266 11.4284 7.45898 12.125 7.20508 12.8867C6.95768 13.6419 6.83398 14.4199 6.83398 15.2207C6.83398 16.2233 7.04883 17.1022 7.47852 17.8574C7.9082 18.6061 8.51042 19.1888 9.28516 19.6055C10.0599 20.0221 10.9648 20.2305 12 20.2305Z" fill="black" fill-opacity="0.2"/>
</svg>
