<svg width="32" height="32" viewBox="0 0 32 32" fill="none" xmlns="http://www.w3.org/2000/svg">
<path d="M8.04297 25.7383C6.82422 25.7383 5.78516 25.5039 4.92578 25.0352C4.07422 24.5664 3.42188 23.9375 2.96875 23.1484C2.52344 22.3594 2.30078 21.4844 2.30078 20.5234C2.30078 19.6875 2.46484 18.9258 2.79297 18.2383C3.12109 17.543 3.57812 16.9492 4.16406 16.457C4.75781 15.9648 5.44531 15.6094 6.22656 15.3906C6.32812 14.2188 6.62891 13.1367 7.12891 12.1445C7.62891 11.1445 8.27734 10.2734 9.07422 9.53125C9.87891 8.78906 10.7891 8.21484 11.8047 7.80859C12.8203 7.39453 13.8945 7.1875 15.0273 7.1875C16.7617 7.1875 18.3164 7.63281 19.6914 8.52344C21.0664 9.40625 22.1445 10.6211 22.9258 12.168C23.9883 12.168 24.9688 12.3398 25.8672 12.6836C26.7656 13.0195 27.5469 13.4922 28.2109 14.1016C28.875 14.7109 29.3906 15.4297 29.7578 16.2578C30.125 17.0781 30.3086 17.9688 30.3086 18.9297C30.3086 19.8828 30.1289 20.7734 29.7695 21.6016C29.418 22.4297 28.9219 23.1523 28.2812 23.7695C27.6484 24.3867 26.9062 24.8672 26.0547 25.2109C25.2031 25.5625 24.2852 25.7383 23.3008 25.7383H8.04297ZM8.01953 23.8516H23.4297C24.3672 23.8516 25.2109 23.6367 25.9609 23.207C26.7109 22.7695 27.3047 22.1836 27.7422 21.4492C28.1875 20.7148 28.4102 19.8906 28.4102 18.9766C28.4102 18.0938 28.1875 17.2852 27.7422 16.5508C27.2969 15.8086 26.6445 15.2188 25.7852 14.7812C24.9336 14.3359 23.8984 14.1133 22.6797 14.1133C22.3203 14.1133 22.043 14.0586 21.8477 13.9492C21.6523 13.832 21.4844 13.6289 21.3438 13.3398C20.9062 12.4414 20.375 11.6758 19.75 11.043C19.125 10.4023 18.418 9.91406 17.6289 9.57812C16.8398 9.24219 15.9727 9.07422 15.0273 9.07422C14.1133 9.07422 13.2539 9.25 12.4492 9.60156C11.6445 9.94531 10.9297 10.4336 10.3047 11.0664C9.67969 11.6914 9.17578 12.4258 8.79297 13.2695C8.41016 14.1133 8.18359 15.0312 8.11328 16.0234C8.08984 16.3672 8.00781 16.625 7.86719 16.7969C7.72656 16.9609 7.49219 17.0859 7.16406 17.1719C6.21094 17.4219 5.47656 17.8438 4.96094 18.4375C4.44531 19.0234 4.1875 19.7383 4.1875 20.582C4.1875 21.2383 4.33984 21.8125 4.64453 22.3047C4.94922 22.7891 5.38672 23.168 5.95703 23.4414C6.52734 23.7148 7.21484 23.8516 8.01953 23.8516Z" fill="black"/>
<path d="M8.04297 25.7383C6.82422 25.7383 5.78516 25.5039 4.92578 25.0352C4.07422 24.5664 3.42188 23.9375 2.96875 23.1484C2.52344 22.3594 2.30078 21.4844 2.30078 20.5234C2.30078 19.6875 2.46484 18.9258 2.79297 18.2383C3.12109 17.543 3.57812 16.9492 4.16406 16.457C4.75781 15.9648 5.44531 15.6094 6.22656 15.3906C6.32812 14.2188 6.62891 13.1367 7.12891 12.1445C7.62891 11.1445 8.27734 10.2734 9.07422 9.53125C9.87891 8.78906 10.7891 8.21484 11.8047 7.80859C12.8203 7.39453 13.8945 7.1875 15.0273 7.1875C16.7617 7.1875 18.3164 7.63281 19.6914 8.52344C21.0664 9.40625 22.1445 10.6211 22.9258 12.168C23.9883 12.168 24.9688 12.3398 25.8672 12.6836C26.7656 13.0195 27.5469 13.4922 28.2109 14.1016C28.875 14.7109 29.3906 15.4297 29.7578 16.2578C30.125 17.0781 30.3086 17.9688 30.3086 18.9297C30.3086 19.8828 30.1289 20.7734 29.7695 21.6016C29.418 22.4297 28.9219 23.1523 28.2812 23.7695C27.6484 24.3867 26.9062 24.8672 26.0547 25.2109C25.2031 25.5625 24.2852 25.7383 23.3008 25.7383H8.04297ZM8.01953 23.8516H23.4297C24.3672 23.8516 25.2109 23.6367 25.9609 23.207C26.7109 22.7695 27.3047 22.1836 27.7422 21.4492C28.1875 20.7148 28.4102 19.8906 28.4102 18.9766C28.4102 18.0938 28.1875 17.2852 27.7422 16.5508C27.2969 15.8086 26.6445 15.2188 25.7852 14.7812C24.9336 14.3359 23.8984 14.1133 22.6797 14.1133C22.3203 14.1133 22.043 14.0586 21.8477 13.9492C21.6523 13.832 21.4844 13.6289 21.3438 13.3398C20.9062 12.4414 20.375 11.6758 19.75 11.043C19.125 10.4023 18.418 9.91406 17.6289 9.57812C16.8398 9.24219 15.9727 9.07422 15.0273 9.07422C14.1133 9.07422 13.2539 9.25 12.4492 9.60156C11.6445 9.94531 10.9297 10.4336 10.3047 11.0664C9.67969 11.6914 9.17578 12.4258 8.79297 13.2695C8.41016 14.1133 8.18359 15.0312 8.11328 16.0234C8.08984 16.3672 8.00781 16.625 7.86719 16.7969C7.72656 16.9609 7.49219 17.0859 7.16406 17.1719C6.21094 17.4219 5.47656 17.8438 4.96094 18.4375C4.44531 19.0234 4.1875 19.7383 4.1875 20.582C4.1875 21.2383 4.33984 21.8125 4.64453 22.3047C4.94922 22.7891 5.38672 23.168 5.95703 23.4414C6.52734 23.7148 7.21484 23.8516 8.01953 23.8516Z" fill="black" fill-opacity="0.2"/>
<path d="M8.04297 25.7383C6.82422 25.7383 5.78516 25.5039 4.92578 25.0352C4.07422 24.5664 3.42188 23.9375 2.96875 23.1484C2.52344 22.3594 2.30078 21.4844 2.30078 20.5234C2.30078 19.6875 2.46484 18.9258 2.79297 18.2383C3.12109 17.543 3.57812 16.9492 4.16406 16.457C4.75781 15.9648 5.44531 15.6094 6.22656 15.3906C6.32812 14.2188 6.62891 13.1367 7.12891 12.1445C7.62891 11.1445 8.27734 10.2734 9.07422 9.53125C9.87891 8.78906 10.7891 8.21484 11.8047 7.80859C12.8203 7.39453 13.8945 7.1875 15.0273 7.1875C16.7617 7.1875 18.3164 7.63281 19.6914 8.52344C21.0664 9.40625 22.1445 10.6211 22.9258 12.168C23.9883 12.168 24.9688 12.3398 25.8672 12.6836C26.7656 13.0195 27.5469 13.4922 28.2109 14.1016C28.875 14.7109 29.3906 15.4297 29.7578 16.2578C30.125 17.0781 30.3086 17.9688 30.3086 18.9297C30.3086 19.8828 30.1289 20.7734 29.7695 21.6016C29.418 22.4297 28.9219 23.1523 28.2812 23.7695C27.6484 24.3867 26.9062 24.8672 26.0547 25.2109C25.2031 25.5625 24.2852 25.7383 23.3008 25.7383H8.04297ZM8.01953 23.8516H23.4297C24.3672 23.8516 25.2109 23.6367 25.9609 23.207C26.7109 22.7695 27.3047 22.1836 27.7422 21.4492C28.1875 20.7148 28.4102 19.8906 28.4102 18.9766C28.4102 18.0938 28.1875 17.2852 27.7422 16.5508C27.2969 15.8086 26.6445 15.2188 25.7852 14.7812C24.9336 14.3359 23.8984 14.1133 22.6797 14.1133C22.3203 14.1133 22.043 14.0586 21.8477 13.9492C21.6523 13.832 21.4844 13.6289 21.3438 13.3398C20.9062 12.4414 20.375 11.6758 19.75 11.043C19.125 10.4023 18.418 9.91406 17.6289 9.57812C16.8398 9.24219 15.9727 9.07422 15.0273 9.07422C14.1133 9.07422 13.2539 9.25 12.4492 9.60156C11.6445 9.94531 10.9297 10.4336 10.3047 11.0664C9.67969 11.6914 9.17578 12.4258 8.79297 13.2695C8.41016 14.1133 8.18359 15.0312 8.11328 16.0234C8.08984 16.3672 8.00781 16.625 7.86719 16.7969C7.72656 16.9609 7.49219 17.0859 7.16406 17.1719C6.21094 17.4219 5.47656 17.8438 4.96094 18.4375C4.44531 19.0234 4.1875 19.7383 4.1875 20.582C4.1875 21.2383 4.33984 21.8125 4.64453 22.3047C4.94922 22.7891 5.38672 23.168 5.95703 23.4414C6.52734 23.7148 7.21484 23.8516 8.01953 23.8516Z" fill="black" fill-opacity="0.2"/>
<path d="M8.04297 25.7383C6.82422 25.7383 5.78516 25.5039 4.92578 25.0352C4.07422 24.5664 3.42188 23.9375 2.96875 23.1484C2.52344 22.3594 2.30078 21.4844 2.30078 20.5234C2.30078 19.6875 2.46484 18.9258 2.79297 18.2383C3.12109 17.543 3.57812 16.9492 4.16406 16.457C4.75781 15.9648 5.44531 15.6094 6.22656 15.3906C6.32812 14.2188 6.62891 13.1367 7.12891 12.1445C7.62891 11.1445 8.27734 10.2734 9.07422 9.53125C9.87891 8.78906 10.7891 8.21484 11.8047 7.80859C12.8203 7.39453 13.8945 7.1875 15.0273 7.1875C16.7617 7.1875 18.3164 7.63281 19.6914 8.52344C21.0664 9.40625 22.1445 10.6211 22.9258 12.168C23.9883 12.168 24.9688 12.3398 25.8672 12.6836C26.7656 13.0195 27.5469 13.4922 28.2109 14.1016C28.875 14.7109 29.3906 15.4297 29.7578 16.2578C30.125 17.0781 30.3086 17.9688 30.3086 18.9297C30.3086 19.8828 30.1289 20.7734 29.7695 21.6016C29.418 22.4297 28.9219 23.1523 28.2812 23.7695C27.6484 24.3867 26.9062 24.8672 26.0547 25.2109C25.2031 25.5625 24.2852 25.7383 23.3008 25.7383H8.04297ZM8.01953 23.8516H23.4297C24.3672 23.8516 25.2109 23.6367 25.9609 23.207C26.7109 22.7695 27.3047 22.1836 27.7422 21.4492C28.1875 20.7148 28.4102 19.8906 28.4102 18.9766C28.4102 18.0938 28.1875 17.2852 27.7422 16.5508C27.2969 15.8086 26.6445 15.2188 25.7852 14.7812C24.9336 14.3359 23.8984 14.1133 22.6797 14.1133C22.3203 14.1133 22.043 14.0586 21.8477 13.9492C21.6523 13.832 21.4844 13.6289 21.3438 13.3398C20.9062 12.4414 20.375 11.6758 19.75 11.043C19.125 10.4023 18.418 9.91406 17.6289 9.57812C16.8398 9.24219 15.9727 9.07422 15.0273 9.07422C14.1133 9.07422 13.2539 9.25 12.4492 9.60156C11.6445 9.94531 10.9297 10.4336 10.3047 11.0664C9.67969 11.6914 9.17578 12.4258 8.79297 13.2695C8.41016 14.1133 8.18359 15.0312 8.11328 16.0234C8.08984 16.3672 8.00781 16.625 7.86719 16.7969C7.72656 16.9609 7.49219 17.0859 7.16406 17.1719C6.21094 17.4219 5.47656 17.8438 4.96094 18.4375C4.44531 19.0234 4.1875 19.7383 4.1875 20.582C4.1875 21.2383 4.33984 21.8125 4.64453 22.3047C4.94922 22.7891 5.38672 23.168 5.95703 23.4414C6.52734 23.7148 7.21484 23.8516 8.01953 23.8516Z" fill="black" fill-opacity="0.2"/>
<path d="M8.04297 25.7383C6.82422 25.7383 5.78516 25.5039 4.92578 25.0352C4.07422 24.5664 3.42188 23.9375 2.96875 23.1484C2.52344 22.3594 2.30078 21.4844 2.30078 20.5234C2.30078 19.6875 2.46484 18.9258 2.79297 18.2383C3.12109 17.543 3.57812 16.9492 4.16406 16.457C4.75781 15.9648 5.44531 15.6094 6.22656 15.3906C6.32812 14.2188 6.62891 13.1367 7.12891 12.1445C7.62891 11.1445 8.27734 10.2734 9.07422 9.53125C9.87891 8.78906 10.7891 8.21484 11.8047 7.80859C12.8203 7.39453 13.8945 7.1875 15.0273 7.1875C16.7617 7.1875 18.3164 7.63281 19.6914 8.52344C21.0664 9.40625 22.1445 10.6211 22.9258 12.168C23.9883 12.168 24.9688 12.3398 25.8672 12.6836C26.7656 13.0195 27.5469 13.4922 28.2109 14.1016C28.875 14.7109 29.3906 15.4297 29.7578 16.2578C30.125 17.0781 30.3086 17.9688 30.3086 18.9297C30.3086 19.8828 30.1289 20.7734 29.7695 21.6016C29.418 22.4297 28.9219 23.1523 28.2812 23.7695C27.6484 24.3867 26.9062 24.8672 26.0547 25.2109C25.2031 25.5625 24.2852 25.7383 23.3008 25.7383H8.04297ZM8.01953 23.8516H23.4297C24.3672 23.8516 25.2109 23.6367 25.9609 23.207C26.7109 22.7695 27.3047 22.1836 27.7422 21.4492C28.1875 20.7148 28.4102 19.8906 28.4102 18.9766C28.4102 18.0938 28.1875 17.2852 27.7422 16.5508C27.2969 15.8086 26.6445 15.2188 25.7852 14.7812C24.9336 14.3359 23.8984 14.1133 22.6797 14.1133C22.3203 14.1133 22.043 14.0586 21.8477 13.9492C21.6523 13.832 21.4844 13.6289 21.3438 13.3398C20.9062 12.4414 20.375 11.6758 19.75 11.043C19.125 10.4023 18.418 9.91406 17.6289 9.57812C16.8398 9.24219 15.9727 9.07422 15.0273 9.07422C14.1133 9.07422 13.2539 9.25 12.4492 9.60156C11.6445 9.94531 10.9297 10.4336 10.3047 11.0664C9.67969 11.6914 9.17578 12.4258 8.79297 13.2695C8.41016 14.1133 8.18359 15.0312 8.11328 16.0234C8.08984 16.3672 8.00781 16.625 7.86719 16.7969C7.72656 16.9609 7.49219 17.0859 7.16406 17.1719C6.21094 17.4219 5.47656 17.8438 4.96094 18.4375C4.44531 19.0234 4.1875 19.7383 4.1875 20.582C4.1875 21.2383 4.33984 21.8125 4.64453 22.3047C4.94922 22.7891 5.38672 23.168 5.95703 23.4414C6.52734 23.7148 7.21484 23.8516 8.01953 23.8516Z" fill="black" fill-opacity="0.2"/>
</svg>
