<svg width="35" height="32" viewBox="0 0 35 32" fill="none" xmlns="http://www.w3.org/2000/svg">
<path d="M5.05469 27.8359C4.0625 27.8359 3.19141 27.6406 2.44141 27.25C1.69922 26.8594 1.12109 26.3242 0.707031 25.6445C0.292969 24.9648 0.0859375 24.1836 0.0859375 23.3008C0.0859375 22.2383 0.386719 21.3125 0.988281 20.5234C1.58984 19.7266 2.37891 19.1758 3.35547 18.8711C3.45703 17.9102 3.71875 17.0156 4.14062 16.1875C4.57031 15.3516 5.125 14.625 5.80469 14.0078C6.48438 13.3828 7.25391 12.8984 8.11328 12.5547C8.98047 12.2031 9.89844 12.0273 10.8672 12.0273C12.3203 12.0273 13.6289 12.3984 14.793 13.1406C15.9648 13.875 16.8945 14.8828 17.582 16.1641C18.7539 16.1797 19.8047 16.4453 20.7344 16.9609C21.6641 17.4688 22.3984 18.1562 22.9375 19.0234C23.4844 19.8906 23.7578 20.8711 23.7578 21.9648C23.7578 23.0664 23.4883 24.0625 22.9492 24.9531C22.418 25.8359 21.6992 26.5352 20.793 27.0508C19.8867 27.5742 18.8672 27.8359 17.7344 27.8359H5.05469ZM5.00781 25.9609H17.7695C18.543 25.9609 19.2383 25.7852 19.8555 25.4336C20.4805 25.082 20.9727 24.6094 21.332 24.0156C21.6914 23.4141 21.8711 22.75 21.8711 22.0234C21.8711 21.2969 21.6875 20.6289 21.3203 20.0195C20.9531 19.4102 20.4141 18.9258 19.7031 18.5664C19 18.1992 18.1445 18.0156 17.1367 18.0156C16.8398 18.0156 16.6055 17.9688 16.4336 17.875C16.2695 17.7734 16.125 17.5938 16 17.3359C15.6328 16.6094 15.1953 15.9922 14.6875 15.4844C14.1797 14.9688 13.6055 14.5781 12.9648 14.3125C12.3242 14.0391 11.625 13.9023 10.8672 13.9023C10.1406 13.9023 9.44922 14.043 8.79297 14.3242C8.14453 14.5977 7.5625 14.9883 7.04688 15.4961C6.53906 16.0039 6.125 16.6016 5.80469 17.2891C5.49219 17.9766 5.30078 18.7305 5.23047 19.5508C5.20703 19.8477 5.13281 20.0703 5.00781 20.2188C4.89062 20.3672 4.69141 20.4766 4.41016 20.5469C3.54297 20.7812 2.91797 21.1523 2.53516 21.6602C2.15234 22.168 1.96094 22.7305 1.96094 23.3477C1.96094 23.8398 2.07422 24.2852 2.30078 24.6836C2.53516 25.0742 2.87891 25.3828 3.33203 25.6094C3.78516 25.8438 4.34375 25.9609 5.00781 25.9609ZM22.0117 12.2148C21.2461 12.2148 20.5547 12.3984 19.9375 12.7656C19.3281 13.125 18.8398 13.6133 18.4727 14.2305C18.1133 14.8477 17.9336 15.5391 17.9336 16.3047C17.9336 16.4062 17.9375 16.5078 17.9453 16.6094C17.9609 16.7109 17.9805 16.8086 18.0039 16.9023L16.2344 16.7266C16.2344 16.6641 16.2305 16.5977 16.2227 16.5273C16.2148 16.457 16.2109 16.3828 16.2109 16.3047C16.2109 15.2344 16.4688 14.2617 16.9844 13.3867C17.5078 12.5039 18.207 11.8008 19.082 11.2773C19.957 10.7539 20.9336 10.4922 22.0117 10.4922C23.082 10.4922 24.0547 10.7539 24.9297 11.2773C25.8125 11.8008 26.5117 12.5039 27.0273 13.3867C27.543 14.2617 27.8008 15.2344 27.8008 16.3047C27.8008 17.2344 27.6016 18.0977 27.2031 18.8945C26.8125 19.6836 26.2734 20.3555 25.5859 20.9102C24.8984 21.457 24.1133 21.832 23.2305 22.0352L23.2188 20.2656C23.7812 20.0859 24.2773 19.8047 24.707 19.4219C25.1367 19.0312 25.4727 18.5703 25.7148 18.0391C25.9648 17.5 26.0898 16.9219 26.0898 16.3047C26.0898 15.5391 25.9062 14.8477 25.5391 14.2305C25.1797 13.6133 24.6914 13.125 24.0742 12.7656C23.4648 12.3984 22.7773 12.2148 22.0117 12.2148ZM15.2148 10.8906L13.4336 9.09766C13.2383 8.91016 13.1406 8.68359 13.1406 8.41797C13.1484 8.14453 13.2461 7.91406 13.4336 7.72656C13.6211 7.53906 13.8477 7.44531 14.1133 7.44531C14.3789 7.44531 14.6055 7.53906 14.793 7.72656L16.5977 9.53125C16.7852 9.71875 16.875 9.94531 16.8672 10.2109C16.8672 10.4766 16.7773 10.7031 16.5977 10.8906C16.418 11.0781 16.1914 11.1758 15.918 11.1836C15.6445 11.1836 15.4102 11.0859 15.2148 10.8906ZM22.0117 8.64062C21.7461 8.64062 21.5156 8.54297 21.3203 8.34766C21.1328 8.15234 21.0391 7.92578 21.0391 7.66797V5.125C21.0391 4.85937 21.1328 4.63281 21.3203 4.44531C21.5156 4.25 21.7461 4.15234 22.0117 4.15234C22.2773 4.15234 22.5039 4.25 22.6914 4.44531C22.8867 4.63281 22.9844 4.85937 22.9844 5.125V7.66797C22.9844 7.92578 22.8867 8.15234 22.6914 8.34766C22.5039 8.54297 22.2773 8.64062 22.0117 8.64062ZM27.4258 10.8906C27.2461 10.7031 27.1523 10.4766 27.1445 10.2109C27.1445 9.94531 27.2383 9.71875 27.4258 9.53125L29.2422 7.72656C29.4297 7.53906 29.6562 7.44531 29.9219 7.44531C30.1875 7.44531 30.4141 7.53906 30.6016 7.72656C30.7891 7.91406 30.8828 8.14453 30.8828 8.41797C30.8828 8.68359 30.7891 8.91016 30.6016 9.09766L28.8086 10.8906C28.6211 11.0859 28.3867 11.1836 28.1055 11.1836C27.832 11.1758 27.6055 11.0781 27.4258 10.8906ZM30.6367 17.2773C30.3789 17.2773 30.1523 17.1836 29.957 16.9961C29.7617 16.8086 29.6641 16.5781 29.6641 16.3047C29.6641 16.0391 29.7617 15.8125 29.957 15.625C30.1523 15.4297 30.3789 15.332 30.6367 15.332H33.1797C33.4453 15.332 33.6719 15.4297 33.8594 15.625C34.0469 15.8125 34.1406 16.0391 34.1406 16.3047C34.1406 16.5781 34.0469 16.8086 33.8594 16.9961C33.6719 17.1836 33.4453 17.2773 33.1797 17.2773H30.6367ZM29.2422 24.9062L27.4258 23.1133C27.2383 22.9258 27.1445 22.6992 27.1445 22.4336C27.1445 22.1602 27.2383 21.9297 27.4258 21.7422C27.6133 21.5547 27.8398 21.4609 28.1055 21.4609C28.3711 21.4609 28.5977 21.5547 28.7852 21.7422L30.6016 23.5352C30.7891 23.7148 30.8828 23.9414 30.8828 24.2148C30.8828 24.4805 30.7891 24.707 30.6016 24.8945C30.4141 25.082 30.1875 25.1758 29.9219 25.1758C29.6562 25.1836 29.4297 25.0938 29.2422 24.9062Z" fill="black"/>
<path d="M5.05469 27.8359C4.0625 27.8359 3.19141 27.6406 2.44141 27.25C1.69922 26.8594 1.12109 26.3242 0.707031 25.6445C0.292969 24.9648 0.0859375 24.1836 0.0859375 23.3008C0.0859375 22.2383 0.386719 21.3125 0.988281 20.5234C1.58984 19.7266 2.37891 19.1758 3.35547 18.8711C3.45703 17.9102 3.71875 17.0156 4.14062 16.1875C4.57031 15.3516 5.125 14.625 5.80469 14.0078C6.48438 13.3828 7.25391 12.8984 8.11328 12.5547C8.98047 12.2031 9.89844 12.0273 10.8672 12.0273C12.3203 12.0273 13.6289 12.3984 14.793 13.1406C15.9648 13.875 16.8945 14.8828 17.582 16.1641C18.7539 16.1797 19.8047 16.4453 20.7344 16.9609C21.6641 17.4688 22.3984 18.1562 22.9375 19.0234C23.4844 19.8906 23.7578 20.8711 23.7578 21.9648C23.7578 23.0664 23.4883 24.0625 22.9492 24.9531C22.418 25.8359 21.6992 26.5352 20.793 27.0508C19.8867 27.5742 18.8672 27.8359 17.7344 27.8359H5.05469ZM5.00781 25.9609H17.7695C18.543 25.9609 19.2383 25.7852 19.8555 25.4336C20.4805 25.082 20.9727 24.6094 21.332 24.0156C21.6914 23.4141 21.8711 22.75 21.8711 22.0234C21.8711 21.2969 21.6875 20.6289 21.3203 20.0195C20.9531 19.4102 20.4141 18.9258 19.7031 18.5664C19 18.1992 18.1445 18.0156 17.1367 18.0156C16.8398 18.0156 16.6055 17.9688 16.4336 17.875C16.2695 17.7734 16.125 17.5938 16 17.3359C15.6328 16.6094 15.1953 15.9922 14.6875 15.4844C14.1797 14.9688 13.6055 14.5781 12.9648 14.3125C12.3242 14.0391 11.625 13.9023 10.8672 13.9023C10.1406 13.9023 9.44922 14.043 8.79297 14.3242C8.14453 14.5977 7.5625 14.9883 7.04688 15.4961C6.53906 16.0039 6.125 16.6016 5.80469 17.2891C5.49219 17.9766 5.30078 18.7305 5.23047 19.5508C5.20703 19.8477 5.13281 20.0703 5.00781 20.2188C4.89062 20.3672 4.69141 20.4766 4.41016 20.5469C3.54297 20.7812 2.91797 21.1523 2.53516 21.6602C2.15234 22.168 1.96094 22.7305 1.96094 23.3477C1.96094 23.8398 2.07422 24.2852 2.30078 24.6836C2.53516 25.0742 2.87891 25.3828 3.33203 25.6094C3.78516 25.8438 4.34375 25.9609 5.00781 25.9609ZM22.0117 12.2148C21.2461 12.2148 20.5547 12.3984 19.9375 12.7656C19.3281 13.125 18.8398 13.6133 18.4727 14.2305C18.1133 14.8477 17.9336 15.5391 17.9336 16.3047C17.9336 16.4062 17.9375 16.5078 17.9453 16.6094C17.9609 16.7109 17.9805 16.8086 18.0039 16.9023L16.2344 16.7266C16.2344 16.6641 16.2305 16.5977 16.2227 16.5273C16.2148 16.457 16.2109 16.3828 16.2109 16.3047C16.2109 15.2344 16.4688 14.2617 16.9844 13.3867C17.5078 12.5039 18.207 11.8008 19.082 11.2773C19.957 10.7539 20.9336 10.4922 22.0117 10.4922C23.082 10.4922 24.0547 10.7539 24.9297 11.2773C25.8125 11.8008 26.5117 12.5039 27.0273 13.3867C27.543 14.2617 27.8008 15.2344 27.8008 16.3047C27.8008 17.2344 27.6016 18.0977 27.2031 18.8945C26.8125 19.6836 26.2734 20.3555 25.5859 20.9102C24.8984 21.457 24.1133 21.832 23.2305 22.0352L23.2188 20.2656C23.7812 20.0859 24.2773 19.8047 24.707 19.4219C25.1367 19.0312 25.4727 18.5703 25.7148 18.0391C25.9648 17.5 26.0898 16.9219 26.0898 16.3047C26.0898 15.5391 25.9062 14.8477 25.5391 14.2305C25.1797 13.6133 24.6914 13.125 24.0742 12.7656C23.4648 12.3984 22.7773 12.2148 22.0117 12.2148ZM15.2148 10.8906L13.4336 9.09766C13.2383 8.91016 13.1406 8.68359 13.1406 8.41797C13.1484 8.14453 13.2461 7.91406 13.4336 7.72656C13.6211 7.53906 13.8477 7.44531 14.1133 7.44531C14.3789 7.44531 14.6055 7.53906 14.793 7.72656L16.5977 9.53125C16.7852 9.71875 16.875 9.94531 16.8672 10.2109C16.8672 10.4766 16.7773 10.7031 16.5977 10.8906C16.418 11.0781 16.1914 11.1758 15.918 11.1836C15.6445 11.1836 15.4102 11.0859 15.2148 10.8906ZM22.0117 8.64062C21.7461 8.64062 21.5156 8.54297 21.3203 8.34766C21.1328 8.15234 21.0391 7.92578 21.0391 7.66797V5.125C21.0391 4.85937 21.1328 4.63281 21.3203 4.44531C21.5156 4.25 21.7461 4.15234 22.0117 4.15234C22.2773 4.15234 22.5039 4.25 22.6914 4.44531C22.8867 4.63281 22.9844 4.85937 22.9844 5.125V7.66797C22.9844 7.92578 22.8867 8.15234 22.6914 8.34766C22.5039 8.54297 22.2773 8.64062 22.0117 8.64062ZM27.4258 10.8906C27.2461 10.7031 27.1523 10.4766 27.1445 10.2109C27.1445 9.94531 27.2383 9.71875 27.4258 9.53125L29.2422 7.72656C29.4297 7.53906 29.6562 7.44531 29.9219 7.44531C30.1875 7.44531 30.4141 7.53906 30.6016 7.72656C30.7891 7.91406 30.8828 8.14453 30.8828 8.41797C30.8828 8.68359 30.7891 8.91016 30.6016 9.09766L28.8086 10.8906C28.6211 11.0859 28.3867 11.1836 28.1055 11.1836C27.832 11.1758 27.6055 11.0781 27.4258 10.8906ZM30.6367 17.2773C30.3789 17.2773 30.1523 17.1836 29.957 16.9961C29.7617 16.8086 29.6641 16.5781 29.6641 16.3047C29.6641 16.0391 29.7617 15.8125 29.957 15.625C30.1523 15.4297 30.3789 15.332 30.6367 15.332H33.1797C33.4453 15.332 33.6719 15.4297 33.8594 15.625C34.0469 15.8125 34.1406 16.0391 34.1406 16.3047C34.1406 16.5781 34.0469 16.8086 33.8594 16.9961C33.6719 17.1836 33.4453 17.2773 33.1797 17.2773H30.6367ZM29.2422 24.9062L27.4258 23.1133C27.2383 22.9258 27.1445 22.6992 27.1445 22.4336C27.1445 22.1602 27.2383 21.9297 27.4258 21.7422C27.6133 21.5547 27.8398 21.4609 28.1055 21.4609C28.3711 21.4609 28.5977 21.5547 28.7852 21.7422L30.6016 23.5352C30.7891 23.7148 30.8828 23.9414 30.8828 24.2148C30.8828 24.4805 30.7891 24.707 30.6016 24.8945C30.4141 25.082 30.1875 25.1758 29.9219 25.1758C29.6562 25.1836 29.4297 25.0938 29.2422 24.9062Z" fill="black" fill-opacity="0.2"/>
<path d="M5.05469 27.8359C4.0625 27.8359 3.19141 27.6406 2.44141 27.25C1.69922 26.8594 1.12109 26.3242 0.707031 25.6445C0.292969 24.9648 0.0859375 24.1836 0.0859375 23.3008C0.0859375 22.2383 0.386719 21.3125 0.988281 20.5234C1.58984 19.7266 2.37891 19.1758 3.35547 18.8711C3.45703 17.9102 3.71875 17.0156 4.14062 16.1875C4.57031 15.3516 5.125 14.625 5.80469 14.0078C6.48438 13.3828 7.25391 12.8984 8.11328 12.5547C8.98047 12.2031 9.89844 12.0273 10.8672 12.0273C12.3203 12.0273 13.6289 12.3984 14.793 13.1406C15.9648 13.875 16.8945 14.8828 17.582 16.1641C18.7539 16.1797 19.8047 16.4453 20.7344 16.9609C21.6641 17.4688 22.3984 18.1562 22.9375 19.0234C23.4844 19.8906 23.7578 20.8711 23.7578 21.9648C23.7578 23.0664 23.4883 24.0625 22.9492 24.9531C22.418 25.8359 21.6992 26.5352 20.793 27.0508C19.8867 27.5742 18.8672 27.8359 17.7344 27.8359H5.05469ZM5.00781 25.9609H17.7695C18.543 25.9609 19.2383 25.7852 19.8555 25.4336C20.4805 25.082 20.9727 24.6094 21.332 24.0156C21.6914 23.4141 21.8711 22.75 21.8711 22.0234C21.8711 21.2969 21.6875 20.6289 21.3203 20.0195C20.9531 19.4102 20.4141 18.9258 19.7031 18.5664C19 18.1992 18.1445 18.0156 17.1367 18.0156C16.8398 18.0156 16.6055 17.9688 16.4336 17.875C16.2695 17.7734 16.125 17.5938 16 17.3359C15.6328 16.6094 15.1953 15.9922 14.6875 15.4844C14.1797 14.9688 13.6055 14.5781 12.9648 14.3125C12.3242 14.0391 11.625 13.9023 10.8672 13.9023C10.1406 13.9023 9.44922 14.043 8.79297 14.3242C8.14453 14.5977 7.5625 14.9883 7.04688 15.4961C6.53906 16.0039 6.125 16.6016 5.80469 17.2891C5.49219 17.9766 5.30078 18.7305 5.23047 19.5508C5.20703 19.8477 5.13281 20.0703 5.00781 20.2188C4.89062 20.3672 4.69141 20.4766 4.41016 20.5469C3.54297 20.7812 2.91797 21.1523 2.53516 21.6602C2.15234 22.168 1.96094 22.7305 1.96094 23.3477C1.96094 23.8398 2.07422 24.2852 2.30078 24.6836C2.53516 25.0742 2.87891 25.3828 3.33203 25.6094C3.78516 25.8438 4.34375 25.9609 5.00781 25.9609ZM22.0117 12.2148C21.2461 12.2148 20.5547 12.3984 19.9375 12.7656C19.3281 13.125 18.8398 13.6133 18.4727 14.2305C18.1133 14.8477 17.9336 15.5391 17.9336 16.3047C17.9336 16.4062 17.9375 16.5078 17.9453 16.6094C17.9609 16.7109 17.9805 16.8086 18.0039 16.9023L16.2344 16.7266C16.2344 16.6641 16.2305 16.5977 16.2227 16.5273C16.2148 16.457 16.2109 16.3828 16.2109 16.3047C16.2109 15.2344 16.4688 14.2617 16.9844 13.3867C17.5078 12.5039 18.207 11.8008 19.082 11.2773C19.957 10.7539 20.9336 10.4922 22.0117 10.4922C23.082 10.4922 24.0547 10.7539 24.9297 11.2773C25.8125 11.8008 26.5117 12.5039 27.0273 13.3867C27.543 14.2617 27.8008 15.2344 27.8008 16.3047C27.8008 17.2344 27.6016 18.0977 27.2031 18.8945C26.8125 19.6836 26.2734 20.3555 25.5859 20.9102C24.8984 21.457 24.1133 21.832 23.2305 22.0352L23.2188 20.2656C23.7812 20.0859 24.2773 19.8047 24.707 19.4219C25.1367 19.0312 25.4727 18.5703 25.7148 18.0391C25.9648 17.5 26.0898 16.9219 26.0898 16.3047C26.0898 15.5391 25.9062 14.8477 25.5391 14.2305C25.1797 13.6133 24.6914 13.125 24.0742 12.7656C23.4648 12.3984 22.7773 12.2148 22.0117 12.2148ZM15.2148 10.8906L13.4336 9.09766C13.2383 8.91016 13.1406 8.68359 13.1406 8.41797C13.1484 8.14453 13.2461 7.91406 13.4336 7.72656C13.6211 7.53906 13.8477 7.44531 14.1133 7.44531C14.3789 7.44531 14.6055 7.53906 14.793 7.72656L16.5977 9.53125C16.7852 9.71875 16.875 9.94531 16.8672 10.2109C16.8672 10.4766 16.7773 10.7031 16.5977 10.8906C16.418 11.0781 16.1914 11.1758 15.918 11.1836C15.6445 11.1836 15.4102 11.0859 15.2148 10.8906ZM22.0117 8.64062C21.7461 8.64062 21.5156 8.54297 21.3203 8.34766C21.1328 8.15234 21.0391 7.92578 21.0391 7.66797V5.125C21.0391 4.85937 21.1328 4.63281 21.3203 4.44531C21.5156 4.25 21.7461 4.15234 22.0117 4.15234C22.2773 4.15234 22.5039 4.25 22.6914 4.44531C22.8867 4.63281 22.9844 4.85937 22.9844 5.125V7.66797C22.9844 7.92578 22.8867 8.15234 22.6914 8.34766C22.5039 8.54297 22.2773 8.64062 22.0117 8.64062ZM27.4258 10.8906C27.2461 10.7031 27.1523 10.4766 27.1445 10.2109C27.1445 9.94531 27.2383 9.71875 27.4258 9.53125L29.2422 7.72656C29.4297 7.53906 29.6562 7.44531 29.9219 7.44531C30.1875 7.44531 30.4141 7.53906 30.6016 7.72656C30.7891 7.91406 30.8828 8.14453 30.8828 8.41797C30.8828 8.68359 30.7891 8.91016 30.6016 9.09766L28.8086 10.8906C28.6211 11.0859 28.3867 11.1836 28.1055 11.1836C27.832 11.1758 27.6055 11.0781 27.4258 10.8906ZM30.6367 17.2773C30.3789 17.2773 30.1523 17.1836 29.957 16.9961C29.7617 16.8086 29.6641 16.5781 29.6641 16.3047C29.6641 16.0391 29.7617 15.8125 29.957 15.625C30.1523 15.4297 30.3789 15.332 30.6367 15.332H33.1797C33.4453 15.332 33.6719 15.4297 33.8594 15.625C34.0469 15.8125 34.1406 16.0391 34.1406 16.3047C34.1406 16.5781 34.0469 16.8086 33.8594 16.9961C33.6719 17.1836 33.4453 17.2773 33.1797 17.2773H30.6367ZM29.2422 24.9062L27.4258 23.1133C27.2383 22.9258 27.1445 22.6992 27.1445 22.4336C27.1445 22.1602 27.2383 21.9297 27.4258 21.7422C27.6133 21.5547 27.8398 21.4609 28.1055 21.4609C28.3711 21.4609 28.5977 21.5547 28.7852 21.7422L30.6016 23.5352C30.7891 23.7148 30.8828 23.9414 30.8828 24.2148C30.8828 24.4805 30.7891 24.707 30.6016 24.8945C30.4141 25.082 30.1875 25.1758 29.9219 25.1758C29.6562 25.1836 29.4297 25.0938 29.2422 24.9062Z" fill="black" fill-opacity="0.2"/>
<path d="M5.05469 27.8359C4.0625 27.8359 3.19141 27.6406 2.44141 27.25C1.69922 26.8594 1.12109 26.3242 0.707031 25.6445C0.292969 24.9648 0.0859375 24.1836 0.0859375 23.3008C0.0859375 22.2383 0.386719 21.3125 0.988281 20.5234C1.58984 19.7266 2.37891 19.1758 3.35547 18.8711C3.45703 17.9102 3.71875 17.0156 4.14062 16.1875C4.57031 15.3516 5.125 14.625 5.80469 14.0078C6.48438 13.3828 7.25391 12.8984 8.11328 12.5547C8.98047 12.2031 9.89844 12.0273 10.8672 12.0273C12.3203 12.0273 13.6289 12.3984 14.793 13.1406C15.9648 13.875 16.8945 14.8828 17.582 16.1641C18.7539 16.1797 19.8047 16.4453 20.7344 16.9609C21.6641 17.4688 22.3984 18.1562 22.9375 19.0234C23.4844 19.8906 23.7578 20.8711 23.7578 21.9648C23.7578 23.0664 23.4883 24.0625 22.9492 24.9531C22.418 25.8359 21.6992 26.5352 20.793 27.0508C19.8867 27.5742 18.8672 27.8359 17.7344 27.8359H5.05469ZM5.00781 25.9609H17.7695C18.543 25.9609 19.2383 25.7852 19.8555 25.4336C20.4805 25.082 20.9727 24.6094 21.332 24.0156C21.6914 23.4141 21.8711 22.75 21.8711 22.0234C21.8711 21.2969 21.6875 20.6289 21.3203 20.0195C20.9531 19.4102 20.4141 18.9258 19.7031 18.5664C19 18.1992 18.1445 18.0156 17.1367 18.0156C16.8398 18.0156 16.6055 17.9688 16.4336 17.875C16.2695 17.7734 16.125 17.5938 16 17.3359C15.6328 16.6094 15.1953 15.9922 14.6875 15.4844C14.1797 14.9688 13.6055 14.5781 12.9648 14.3125C12.3242 14.0391 11.625 13.9023 10.8672 13.9023C10.1406 13.9023 9.44922 14.043 8.79297 14.3242C8.14453 14.5977 7.5625 14.9883 7.04688 15.4961C6.53906 16.0039 6.125 16.6016 5.80469 17.2891C5.49219 17.9766 5.30078 18.7305 5.23047 19.5508C5.20703 19.8477 5.13281 20.0703 5.00781 20.2188C4.89062 20.3672 4.69141 20.4766 4.41016 20.5469C3.54297 20.7812 2.91797 21.1523 2.53516 21.6602C2.15234 22.168 1.96094 22.7305 1.96094 23.3477C1.96094 23.8398 2.07422 24.2852 2.30078 24.6836C2.53516 25.0742 2.87891 25.3828 3.33203 25.6094C3.78516 25.8438 4.34375 25.9609 5.00781 25.9609ZM22.0117 12.2148C21.2461 12.2148 20.5547 12.3984 19.9375 12.7656C19.3281 13.125 18.8398 13.6133 18.4727 14.2305C18.1133 14.8477 17.9336 15.5391 17.9336 16.3047C17.9336 16.4062 17.9375 16.5078 17.9453 16.6094C17.9609 16.7109 17.9805 16.8086 18.0039 16.9023L16.2344 16.7266C16.2344 16.6641 16.2305 16.5977 16.2227 16.5273C16.2148 16.457 16.2109 16.3828 16.2109 16.3047C16.2109 15.2344 16.4688 14.2617 16.9844 13.3867C17.5078 12.5039 18.207 11.8008 19.082 11.2773C19.957 10.7539 20.9336 10.4922 22.0117 10.4922C23.082 10.4922 24.0547 10.7539 24.9297 11.2773C25.8125 11.8008 26.5117 12.5039 27.0273 13.3867C27.543 14.2617 27.8008 15.2344 27.8008 16.3047C27.8008 17.2344 27.6016 18.0977 27.2031 18.8945C26.8125 19.6836 26.2734 20.3555 25.5859 20.9102C24.8984 21.457 24.1133 21.832 23.2305 22.0352L23.2188 20.2656C23.7812 20.0859 24.2773 19.8047 24.707 19.4219C25.1367 19.0312 25.4727 18.5703 25.7148 18.0391C25.9648 17.5 26.0898 16.9219 26.0898 16.3047C26.0898 15.5391 25.9062 14.8477 25.5391 14.2305C25.1797 13.6133 24.6914 13.125 24.0742 12.7656C23.4648 12.3984 22.7773 12.2148 22.0117 12.2148ZM15.2148 10.8906L13.4336 9.09766C13.2383 8.91016 13.1406 8.68359 13.1406 8.41797C13.1484 8.14453 13.2461 7.91406 13.4336 7.72656C13.6211 7.53906 13.8477 7.44531 14.1133 7.44531C14.3789 7.44531 14.6055 7.53906 14.793 7.72656L16.5977 9.53125C16.7852 9.71875 16.875 9.94531 16.8672 10.2109C16.8672 10.4766 16.7773 10.7031 16.5977 10.8906C16.418 11.0781 16.1914 11.1758 15.918 11.1836C15.6445 11.1836 15.4102 11.0859 15.2148 10.8906ZM22.0117 8.64062C21.7461 8.64062 21.5156 8.54297 21.3203 8.34766C21.1328 8.15234 21.0391 7.92578 21.0391 7.66797V5.125C21.0391 4.85937 21.1328 4.63281 21.3203 4.44531C21.5156 4.25 21.7461 4.15234 22.0117 4.15234C22.2773 4.15234 22.5039 4.25 22.6914 4.44531C22.8867 4.63281 22.9844 4.85937 22.9844 5.125V7.66797C22.9844 7.92578 22.8867 8.15234 22.6914 8.34766C22.5039 8.54297 22.2773 8.64062 22.0117 8.64062ZM27.4258 10.8906C27.2461 10.7031 27.1523 10.4766 27.1445 10.2109C27.1445 9.94531 27.2383 9.71875 27.4258 9.53125L29.2422 7.72656C29.4297 7.53906 29.6562 7.44531 29.9219 7.44531C30.1875 7.44531 30.4141 7.53906 30.6016 7.72656C30.7891 7.91406 30.8828 8.14453 30.8828 8.41797C30.8828 8.68359 30.7891 8.91016 30.6016 9.09766L28.8086 10.8906C28.6211 11.0859 28.3867 11.1836 28.1055 11.1836C27.832 11.1758 27.6055 11.0781 27.4258 10.8906ZM30.6367 17.2773C30.3789 17.2773 30.1523 17.1836 29.957 16.9961C29.7617 16.8086 29.6641 16.5781 29.6641 16.3047C29.6641 16.0391 29.7617 15.8125 29.957 15.625C30.1523 15.4297 30.3789 15.332 30.6367 15.332H33.1797C33.4453 15.332 33.6719 15.4297 33.8594 15.625C34.0469 15.8125 34.1406 16.0391 34.1406 16.3047C34.1406 16.5781 34.0469 16.8086 33.8594 16.9961C33.6719 17.1836 33.4453 17.2773 33.1797 17.2773H30.6367ZM29.2422 24.9062L27.4258 23.1133C27.2383 22.9258 27.1445 22.6992 27.1445 22.4336C27.1445 22.1602 27.2383 21.9297 27.4258 21.7422C27.6133 21.5547 27.8398 21.4609 28.1055 21.4609C28.3711 21.4609 28.5977 21.5547 28.7852 21.7422L30.6016 23.5352C30.7891 23.7148 30.8828 23.9414 30.8828 24.2148C30.8828 24.4805 30.7891 24.707 30.6016 24.8945C30.4141 25.082 30.1875 25.1758 29.9219 25.1758C29.6562 25.1836 29.4297 25.0938 29.2422 24.9062Z" fill="black" fill-opacity="0.2"/>
<path d="M5.05469 27.8359C4.0625 27.8359 3.19141 27.6406 2.44141 27.25C1.69922 26.8594 1.12109 26.3242 0.707031 25.6445C0.292969 24.9648 0.0859375 24.1836 0.0859375 23.3008C0.0859375 22.2383 0.386719 21.3125 0.988281 20.5234C1.58984 19.7266 2.37891 19.1758 3.35547 18.8711C3.45703 17.9102 3.71875 17.0156 4.14062 16.1875C4.57031 15.3516 5.125 14.625 5.80469 14.0078C6.48438 13.3828 7.25391 12.8984 8.11328 12.5547C8.98047 12.2031 9.89844 12.0273 10.8672 12.0273C12.3203 12.0273 13.6289 12.3984 14.793 13.1406C15.9648 13.875 16.8945 14.8828 17.582 16.1641C18.7539 16.1797 19.8047 16.4453 20.7344 16.9609C21.6641 17.4688 22.3984 18.1562 22.9375 19.0234C23.4844 19.8906 23.7578 20.8711 23.7578 21.9648C23.7578 23.0664 23.4883 24.0625 22.9492 24.9531C22.418 25.8359 21.6992 26.5352 20.793 27.0508C19.8867 27.5742 18.8672 27.8359 17.7344 27.8359H5.05469ZM5.00781 25.9609H17.7695C18.543 25.9609 19.2383 25.7852 19.8555 25.4336C20.4805 25.082 20.9727 24.6094 21.332 24.0156C21.6914 23.4141 21.8711 22.75 21.8711 22.0234C21.8711 21.2969 21.6875 20.6289 21.3203 20.0195C20.9531 19.4102 20.4141 18.9258 19.7031 18.5664C19 18.1992 18.1445 18.0156 17.1367 18.0156C16.8398 18.0156 16.6055 17.9688 16.4336 17.875C16.2695 17.7734 16.125 17.5938 16 17.3359C15.6328 16.6094 15.1953 15.9922 14.6875 15.4844C14.1797 14.9688 13.6055 14.5781 12.9648 14.3125C12.3242 14.0391 11.625 13.9023 10.8672 13.9023C10.1406 13.9023 9.44922 14.043 8.79297 14.3242C8.14453 14.5977 7.5625 14.9883 7.04688 15.4961C6.53906 16.0039 6.125 16.6016 5.80469 17.2891C5.49219 17.9766 5.30078 18.7305 5.23047 19.5508C5.20703 19.8477 5.13281 20.0703 5.00781 20.2188C4.89062 20.3672 4.69141 20.4766 4.41016 20.5469C3.54297 20.7812 2.91797 21.1523 2.53516 21.6602C2.15234 22.168 1.96094 22.7305 1.96094 23.3477C1.96094 23.8398 2.07422 24.2852 2.30078 24.6836C2.53516 25.0742 2.87891 25.3828 3.33203 25.6094C3.78516 25.8438 4.34375 25.9609 5.00781 25.9609ZM22.0117 12.2148C21.2461 12.2148 20.5547 12.3984 19.9375 12.7656C19.3281 13.125 18.8398 13.6133 18.4727 14.2305C18.1133 14.8477 17.9336 15.5391 17.9336 16.3047C17.9336 16.4062 17.9375 16.5078 17.9453 16.6094C17.9609 16.7109 17.9805 16.8086 18.0039 16.9023L16.2344 16.7266C16.2344 16.6641 16.2305 16.5977 16.2227 16.5273C16.2148 16.457 16.2109 16.3828 16.2109 16.3047C16.2109 15.2344 16.4688 14.2617 16.9844 13.3867C17.5078 12.5039 18.207 11.8008 19.082 11.2773C19.957 10.7539 20.9336 10.4922 22.0117 10.4922C23.082 10.4922 24.0547 10.7539 24.9297 11.2773C25.8125 11.8008 26.5117 12.5039 27.0273 13.3867C27.543 14.2617 27.8008 15.2344 27.8008 16.3047C27.8008 17.2344 27.6016 18.0977 27.2031 18.8945C26.8125 19.6836 26.2734 20.3555 25.5859 20.9102C24.8984 21.457 24.1133 21.832 23.2305 22.0352L23.2188 20.2656C23.7812 20.0859 24.2773 19.8047 24.707 19.4219C25.1367 19.0312 25.4727 18.5703 25.7148 18.0391C25.9648 17.5 26.0898 16.9219 26.0898 16.3047C26.0898 15.5391 25.9062 14.8477 25.5391 14.2305C25.1797 13.6133 24.6914 13.125 24.0742 12.7656C23.4648 12.3984 22.7773 12.2148 22.0117 12.2148ZM15.2148 10.8906L13.4336 9.09766C13.2383 8.91016 13.1406 8.68359 13.1406 8.41797C13.1484 8.14453 13.2461 7.91406 13.4336 7.72656C13.6211 7.53906 13.8477 7.44531 14.1133 7.44531C14.3789 7.44531 14.6055 7.53906 14.793 7.72656L16.5977 9.53125C16.7852 9.71875 16.875 9.94531 16.8672 10.2109C16.8672 10.4766 16.7773 10.7031 16.5977 10.8906C16.418 11.0781 16.1914 11.1758 15.918 11.1836C15.6445 11.1836 15.4102 11.0859 15.2148 10.8906ZM22.0117 8.64062C21.7461 8.64062 21.5156 8.54297 21.3203 8.34766C21.1328 8.15234 21.0391 7.92578 21.0391 7.66797V5.125C21.0391 4.85937 21.1328 4.63281 21.3203 4.44531C21.5156 4.25 21.7461 4.15234 22.0117 4.15234C22.2773 4.15234 22.5039 4.25 22.6914 4.44531C22.8867 4.63281 22.9844 4.85937 22.9844 5.125V7.66797C22.9844 7.92578 22.8867 8.15234 22.6914 8.34766C22.5039 8.54297 22.2773 8.64062 22.0117 8.64062ZM27.4258 10.8906C27.2461 10.7031 27.1523 10.4766 27.1445 10.2109C27.1445 9.94531 27.2383 9.71875 27.4258 9.53125L29.2422 7.72656C29.4297 7.53906 29.6562 7.44531 29.9219 7.44531C30.1875 7.44531 30.4141 7.53906 30.6016 7.72656C30.7891 7.91406 30.8828 8.14453 30.8828 8.41797C30.8828 8.68359 30.7891 8.91016 30.6016 9.09766L28.8086 10.8906C28.6211 11.0859 28.3867 11.1836 28.1055 11.1836C27.832 11.1758 27.6055 11.0781 27.4258 10.8906ZM30.6367 17.2773C30.3789 17.2773 30.1523 17.1836 29.957 16.9961C29.7617 16.8086 29.6641 16.5781 29.6641 16.3047C29.6641 16.0391 29.7617 15.8125 29.957 15.625C30.1523 15.4297 30.3789 15.332 30.6367 15.332H33.1797C33.4453 15.332 33.6719 15.4297 33.8594 15.625C34.0469 15.8125 34.1406 16.0391 34.1406 16.3047C34.1406 16.5781 34.0469 16.8086 33.8594 16.9961C33.6719 17.1836 33.4453 17.2773 33.1797 17.2773H30.6367ZM29.2422 24.9062L27.4258 23.1133C27.2383 22.9258 27.1445 22.6992 27.1445 22.4336C27.1445 22.1602 27.2383 21.9297 27.4258 21.7422C27.6133 21.5547 27.8398 21.4609 28.1055 21.4609C28.3711 21.4609 28.5977 21.5547 28.7852 21.7422L30.6016 23.5352C30.7891 23.7148 30.8828 23.9414 30.8828 24.2148C30.8828 24.4805 30.7891 24.707 30.6016 24.8945C30.4141 25.082 30.1875 25.1758 29.9219 25.1758C29.6562 25.1836 29.4297 25.0938 29.2422 24.9062Z" fill="black" fill-opacity="0.2"/>
</svg>
