<svg width="32" height="32" viewBox="0 0 32 32" fill="none" xmlns="http://www.w3.org/2000/svg">
<path d="M7.99609 27.3438C6.76953 27.3438 5.84766 27.0391 5.23047 26.4297C4.62109 25.8281 4.31641 24.9219 4.31641 23.7109V9.40234C4.31641 8.19141 4.62109 7.28516 5.23047 6.68359C5.84766 6.07422 6.76953 5.76953 7.99609 5.76953H24.0039C25.2305 5.76953 26.1484 6.07422 26.7578 6.68359C27.3672 7.28516 27.6719 8.19141 27.6719 9.40234V23.7109C27.6719 24.9219 27.3672 25.8281 26.7578 26.4297C26.1484 27.0391 25.2305 27.3438 24.0039 27.3438H7.99609ZM7.82031 25.457H24.1562C24.6797 25.457 25.082 25.3164 25.3633 25.0352C25.6445 24.7617 25.7852 24.3555 25.7852 23.8164V12.7656C25.7852 12.2266 25.6445 11.8203 25.3633 11.5469C25.082 11.2656 24.6797 11.125 24.1562 11.125H7.82031C7.30469 11.125 6.90625 11.2656 6.625 11.5469C6.34375 11.8203 6.20312 12.2266 6.20312 12.7656V23.8164C6.20312 24.3555 6.34375 24.7617 6.625 25.0352C6.90625 25.3164 7.30469 25.457 7.82031 25.457ZM13.7148 15.3438C13.5117 15.3438 13.3672 15.3047 13.2812 15.2266C13.2031 15.1484 13.1641 15.0078 13.1641 14.8047V14.1133C13.1641 13.9102 13.2031 13.7734 13.2812 13.7031C13.3672 13.625 13.5117 13.5859 13.7148 13.5859H14.4062C14.6094 13.5859 14.75 13.625 14.8281 13.7031C14.9141 13.7734 14.957 13.9102 14.957 14.1133V14.8047C14.957 15.0078 14.9141 15.1484 14.8281 15.2266C14.75 15.3047 14.6094 15.3438 14.4062 15.3438H13.7148ZM17.6055 15.3438C17.4023 15.3438 17.2617 15.3047 17.1836 15.2266C17.1055 15.1484 17.0664 15.0078 17.0664 14.8047V14.1133C17.0664 13.9102 17.1055 13.7734 17.1836 13.7031C17.2617 13.625 17.4023 13.5859 17.6055 13.5859H18.2969C18.5078 13.5859 18.6523 13.625 18.7305 13.7031C18.8086 13.7734 18.8477 13.9102 18.8477 14.1133V14.8047C18.8477 15.0078 18.8086 15.1484 18.7305 15.2266C18.6523 15.3047 18.5078 15.3438 18.2969 15.3438H17.6055ZM21.5078 15.3438C21.2969 15.3438 21.1523 15.3047 21.0742 15.2266C20.9961 15.1484 20.957 15.0078 20.957 14.8047V14.1133C20.957 13.9102 20.9961 13.7734 21.0742 13.7031C21.1523 13.625 21.2969 13.5859 21.5078 13.5859H22.1875C22.3984 13.5859 22.543 13.625 22.6211 13.7031C22.6992 13.7734 22.7383 13.9102 22.7383 14.1133V14.8047C22.7383 15.0078 22.6992 15.1484 22.6211 15.2266C22.543 15.3047 22.3984 15.3438 22.1875 15.3438H21.5078ZM9.82422 19.1758C9.61328 19.1758 9.46875 19.1367 9.39062 19.0586C9.3125 18.9805 9.27344 18.8398 9.27344 18.6367V17.957C9.27344 17.7461 9.3125 17.6055 9.39062 17.5352C9.46875 17.457 9.61328 17.418 9.82422 17.418H10.5156C10.7188 17.418 10.8594 17.457 10.9375 17.5352C11.0156 17.6055 11.0547 17.7461 11.0547 17.957V18.6367C11.0547 18.8398 11.0156 18.9805 10.9375 19.0586C10.8594 19.1367 10.7188 19.1758 10.5156 19.1758H9.82422ZM13.7148 19.1758C13.5117 19.1758 13.3672 19.1367 13.2812 19.0586C13.2031 18.9805 13.1641 18.8398 13.1641 18.6367V17.957C13.1641 17.7461 13.2031 17.6055 13.2812 17.5352C13.3672 17.457 13.5117 17.418 13.7148 17.418H14.4062C14.6094 17.418 14.75 17.457 14.8281 17.5352C14.9141 17.6055 14.957 17.7461 14.957 17.957V18.6367C14.957 18.8398 14.9141 18.9805 14.8281 19.0586C14.75 19.1367 14.6094 19.1758 14.4062 19.1758H13.7148ZM17.6055 19.1758C17.4023 19.1758 17.2617 19.1367 17.1836 19.0586C17.1055 18.9805 17.0664 18.8398 17.0664 18.6367V17.957C17.0664 17.7461 17.1055 17.6055 17.1836 17.5352C17.2617 17.457 17.4023 17.418 17.6055 17.418H18.2969C18.5078 17.418 18.6523 17.457 18.7305 17.5352C18.8086 17.6055 18.8477 17.7461 18.8477 17.957V18.6367C18.8477 18.8398 18.8086 18.9805 18.7305 19.0586C18.6523 19.1367 18.5078 19.1758 18.2969 19.1758H17.6055ZM21.5078 19.1758C21.2969 19.1758 21.1523 19.1367 21.0742 19.0586C20.9961 18.9805 20.957 18.8398 20.957 18.6367V17.957C20.957 17.7461 20.9961 17.6055 21.0742 17.5352C21.1523 17.457 21.2969 17.418 21.5078 17.418H22.1875C22.3984 17.418 22.543 17.457 22.6211 17.5352C22.6992 17.6055 22.7383 17.7461 22.7383 17.957V18.6367C22.7383 18.8398 22.6992 18.9805 22.6211 19.0586C22.543 19.1367 22.3984 19.1758 22.1875 19.1758H21.5078ZM9.82422 23.0078C9.61328 23.0078 9.46875 22.9727 9.39062 22.9023C9.3125 22.8242 9.27344 22.6797 9.27344 22.4688V21.7891C9.27344 21.5781 9.3125 21.4375 9.39062 21.3672C9.46875 21.2891 9.61328 21.25 9.82422 21.25H10.5156C10.7188 21.25 10.8594 21.2891 10.9375 21.3672C11.0156 21.4375 11.0547 21.5781 11.0547 21.7891V22.4688C11.0547 22.6797 11.0156 22.8242 10.9375 22.9023C10.8594 22.9727 10.7188 23.0078 10.5156 23.0078H9.82422ZM13.7148 23.0078C13.5117 23.0078 13.3672 22.9727 13.2812 22.9023C13.2031 22.8242 13.1641 22.6797 13.1641 22.4688V21.7891C13.1641 21.5781 13.2031 21.4375 13.2812 21.3672C13.3672 21.2891 13.5117 21.25 13.7148 21.25H14.4062C14.6094 21.25 14.75 21.2891 14.8281 21.3672C14.9141 21.4375 14.957 21.5781 14.957 21.7891V22.4688C14.957 22.6797 14.9141 22.8242 14.8281 22.9023C14.75 22.9727 14.6094 23.0078 14.4062 23.0078H13.7148ZM17.6055 23.0078C17.4023 23.0078 17.2617 22.9727 17.1836 22.9023C17.1055 22.8242 17.0664 22.6797 17.0664 22.4688V21.7891C17.0664 21.5781 17.1055 21.4375 17.1836 21.3672C17.2617 21.2891 17.4023 21.25 17.6055 21.25H18.2969C18.5078 21.25 18.6523 21.2891 18.7305 21.3672C18.8086 21.4375 18.8477 21.5781 18.8477 21.7891V22.4688C18.8477 22.6797 18.8086 22.8242 18.7305 22.9023C18.6523 22.9727 18.5078 23.0078 18.2969 23.0078H17.6055Z" fill="#008000"/>
</svg>
