<svg width="32" height="36" viewBox="0 0 32 36" fill="none" xmlns="http://www.w3.org/2000/svg">
<path d="M5.38281 14.9727H3.13281C2.85938 14.9727 2.625 14.875 2.42969 14.6797C2.23438 14.4766 2.13672 14.2383 2.13672 13.9648C2.13672 13.6914 2.23438 13.4531 2.42969 13.25C2.625 13.0469 2.85938 12.9453 3.13281 12.9453H5.38281C5.65625 12.9453 5.89453 13.0469 6.09766 13.25C6.30859 13.4453 6.41406 13.6836 6.41406 13.9648C6.41406 14.2383 6.30859 14.4766 6.09766 14.6797C5.89453 14.875 5.65625 14.9727 5.38281 14.9727ZM7.78516 7.17969L6.19141 5.57422C5.99609 5.37891 5.89844 5.14453 5.89844 4.87109C5.89844 4.59766 5.99609 4.35938 6.19141 4.15625C6.39453 3.96094 6.63672 3.86328 6.91797 3.86328C7.19922 3.86328 7.43359 3.96094 7.62109 4.15625L9.20312 5.76172C9.39844 5.95703 9.49609 6.19141 9.49609 6.46484C9.50391 6.73828 9.40625 6.97656 9.20312 7.17969C9.00781 7.375 8.76953 7.47266 8.48828 7.47266C8.21484 7.46484 7.98047 7.36719 7.78516 7.17969ZM14.9922 3.35938V1.10938C14.9922 0.835937 15.0898 0.597656 15.2852 0.394531C15.4883 0.191406 15.7266 0.0898438 16 0.0898438C16.2734 0.0898438 16.5117 0.191406 16.7148 0.394531C16.918 0.597656 17.0195 0.835937 17.0195 1.10938V3.35938C17.0195 3.63281 16.918 3.87109 16.7148 4.07422C16.5195 4.26953 16.2812 4.36719 16 4.36719C15.7266 4.36719 15.4883 4.26953 15.2852 4.07422C15.0898 3.87109 14.9922 3.63281 14.9922 3.35938ZM22.7852 5.76172L24.3906 4.15625C24.5859 3.96094 24.8203 3.86328 25.0938 3.86328C25.3672 3.86328 25.6055 3.96094 25.8086 4.15625C26.0039 4.35938 26.1016 4.59766 26.1016 4.87109C26.1016 5.14453 26.0039 5.37891 25.8086 5.57422L24.2031 7.17969C24.0156 7.375 23.7812 7.47266 23.5 7.47266C23.2266 7.47266 22.9883 7.375 22.7852 7.17969C22.5898 6.97656 22.4922 6.73828 22.4922 6.46484C22.4922 6.19141 22.5898 5.95703 22.7852 5.76172ZM28.8438 14.9727H26.5938C26.3203 14.9727 26.082 14.875 25.8789 14.6797C25.6836 14.4766 25.5859 14.2383 25.5859 13.9648C25.5859 13.6836 25.6836 13.4453 25.8789 13.25C26.082 13.0469 26.3203 12.9453 26.5938 12.9453H28.8438C29.1172 12.9453 29.3555 13.0469 29.5586 13.25C29.7617 13.4531 29.8633 13.6914 29.8633 13.9648C29.8633 14.2383 29.7617 14.4766 29.5586 14.6797C29.3555 14.875 29.1172 14.9727 28.8438 14.9727ZM16 6.54688C17.0312 6.54688 17.9961 6.72266 18.8945 7.07422C19.793 7.42578 20.5781 7.91406 21.25 8.53906C21.9297 9.15625 22.457 9.87891 22.832 10.707C23.2148 11.5352 23.4062 12.4297 23.4062 13.3906C23.4062 14.2344 23.3164 14.9844 23.1367 15.6406C22.9648 16.2969 22.7422 16.9375 22.4688 17.5625C22.1953 18.1875 21.9062 18.875 21.6016 19.625C21.2969 20.3672 21.0156 21.25 20.7578 22.2734C20.5 23.2969 20.2969 24.543 20.1484 26.0117C20.1328 26.2148 20.0664 26.3789 19.9492 26.5039C19.8398 26.6211 19.6758 26.6797 19.457 26.6797H12.543C12.3242 26.6797 12.1562 26.6211 12.0391 26.5039C11.9297 26.3789 11.8633 26.2148 11.8398 26.0117C11.6992 24.543 11.5 23.2969 11.2422 22.2734C10.9844 21.25 10.7031 20.3672 10.3984 19.625C10.0938 18.875 9.80469 18.1875 9.53125 17.5625C9.25781 16.9375 9.03516 16.2969 8.86328 15.6406C8.69141 14.9844 8.60547 14.2344 8.60547 13.3906C8.60547 12.4297 8.79297 11.5352 9.16797 10.707C9.54297 9.87891 10.0664 9.15625 10.7383 8.53906C11.418 7.91406 12.2031 7.42578 13.0938 7.07422C13.9922 6.72266 14.9609 6.54688 16 6.54688ZM16 8.26953C15.2266 8.26953 14.4961 8.39844 13.8086 8.65625C13.1289 8.90625 12.5273 9.26172 12.0039 9.72266C11.4805 10.1758 11.0703 10.7148 10.7734 11.3398C10.4766 11.9648 10.3281 12.6484 10.3281 13.3906C10.3281 14.0156 10.3984 14.5781 10.5391 15.0781C10.6875 15.5703 10.8789 16.082 11.1133 16.6133C11.3555 17.1367 11.6133 17.7539 11.8867 18.4648C12.168 19.168 12.4414 20.043 12.707 21.0898C12.9727 22.1289 13.207 23.418 13.4102 24.957H18.5898C18.793 23.418 19.0273 22.1289 19.293 21.0898C19.5586 20.043 19.832 19.168 20.1133 18.4648C20.3945 17.7539 20.6523 17.1367 20.8867 16.6133C21.1289 16.082 21.3203 15.5703 21.4609 15.0781C21.6094 14.5781 21.6836 14.0156 21.6836 13.3906C21.6836 12.6484 21.5352 11.9648 21.2383 11.3398C20.9414 10.7148 20.5273 10.1758 19.9961 9.72266C19.4727 9.26172 18.8672 8.90625 18.1797 8.65625C17.4922 8.39844 16.7656 8.26953 16 8.26953ZM12.5078 29.0703C12.3203 29.0703 12.1602 29.0078 12.0273 28.8828C11.9023 28.75 11.8398 28.5898 11.8398 28.4023C11.8398 28.207 11.9023 28.0469 12.0273 27.9219C12.1602 27.7969 12.3203 27.7344 12.5078 27.7344H19.4922C19.6875 27.7344 19.8477 27.7969 19.9727 27.9219C20.1055 28.0469 20.1719 28.207 20.1719 28.4023C20.1719 28.5898 20.1055 28.75 19.9727 28.8828C19.8477 29.0078 19.6875 29.0703 19.4922 29.0703H12.5078ZM16 32.2812C15.1328 32.2812 14.3789 32.082 13.7383 31.6836C13.1055 31.2852 12.7695 30.7656 12.7305 30.125H19.2695C19.2305 30.7656 18.8906 31.2852 18.25 31.6836C17.6094 32.082 16.8594 32.2812 16 32.2812Z" fill="#008000"/>
</svg>
